<svg width="765" height="636" viewBox="0 0 765 636" fill="none" xmlns="http://www.w3.org/2000/svg"  class="fill-white">
<path d="M30 38C30 33.5817 33.5817 30 38 30H52C56.4183 30 60 33.5817 60 38V52C60 56.4183 56.4183 60 52 60H38C33.5817 60 30 56.4183 30 52V38Z"/>
<path d="M70 38C70 33.5817 73.5817 30 78 30H92C96.4183 30 100 33.5817 100 38V52C100 56.4183 96.4183 60 92 60H78C73.5817 60 70 56.4183 70 52V38Z" fill="#110522"/>
<path d="M110 38C110 33.5817 113.582 30 118 30H132C136.418 30 140 33.5817 140 38V52C140 56.4183 136.418 60 132 60H118C113.582 60 110 56.4183 110 52V38Z" fill="#110522"/>
<path d="M150 38C150 33.5817 153.582 30 158 30H172C176.418 30 180 33.5817 180 38V52C180 56.4183 176.418 60 172 60H158C153.582 60 150 56.4183 150 52V38Z" fill="#110522"/>
<path d="M190 38C190 33.5817 193.582 30 198 30H212C216.418 30 220 33.5817 220 38V52C220 56.4183 216.418 60 212 60H198C193.582 60 190 56.4183 190 52V38Z" fill="#110522"/>
<path d="M230 38C230 33.5817 233.582 30 238 30H252C256.418 30 260 33.5817 260 38V52C260 56.4183 256.418 60 252 60H238C233.582 60 230 56.4183 230 52V38Z" fill="#110522"/>
<path d="M270 38C270 33.5817 273.582 30 278 30H292C296.418 30 300 33.5817 300 38V52C300 56.4183 296.418 60 292 60H278C273.582 60 270 56.4183 270 52V38Z" fill="#110522"/>
<path d="M310 38C310 33.5817 313.582 30 318 30H332C336.418 30 340 33.5817 340 38V52C340 56.4183 336.418 60 332 60H318C313.582 60 310 56.4183 310 52V38Z" fill="#110522"/>
<path d="M350 38C350 33.5817 353.582 30 358 30H372C376.418 30 380 33.5817 380 38V52C380 56.4183 376.418 60 372 60H358C353.582 60 350 56.4183 350 52V38Z" fill="#110522"/>
<path d="M390 38C390 33.5817 393.582 30 398 30H412C416.418 30 420 33.5817 420 38V52C420 56.4183 416.418 60 412 60H398C393.582 60 390 56.4183 390 52V38Z" fill="#110522"/>
<path d="M430 38C430 33.5817 433.582 30 438 30H452C456.418 30 460 33.5817 460 38V52C460 56.4183 456.418 60 452 60H438C433.582 60 430 56.4183 430 52V38Z" fill="#110522"/>
<path d="M470 38C470 33.5817 473.582 30 478 30H492C496.418 30 500 33.5817 500 38V52C500 56.4183 496.418 60 492 60H478C473.582 60 470 56.4183 470 52V38Z" fill="#110522"/>
<path d="M510 38C510 33.5817 513.582 30 518 30H532C536.418 30 540 33.5817 540 38V52C540 56.4183 536.418 60 532 60H518C513.582 60 510 56.4183 510 52V38Z" fill="#110522"/>
<path d="M550 38C550 33.5817 553.582 30 558 30H572C576.418 30 580 33.5817 580 38V52C580 56.4183 576.418 60 572 60H558C553.582 60 550 56.4183 550 52V38Z" fill="#110522"/>
<path d="M590 38C590 33.5817 593.582 30 598 30H612C616.418 30 620 33.5817 620 38V52C620 56.4183 616.418 60 612 60H598C593.582 60 590 56.4183 590 52V38Z" fill="#110522"/>
<path d="M630 38C630 33.5817 633.582 30 638 30H652C656.418 30 660 33.5817 660 38V52C660 56.4183 656.418 60 652 60H638C633.582 60 630 56.4183 630 52V38Z" fill="#110522"/>
<path d="M670 38C670 33.5817 673.582 30 678 30H692C696.418 30 700 33.5817 700 38V52C700 56.4183 696.418 60 692 60H678C673.582 60 670 56.4183 670 52V38Z" fill="#110522"/>
<path d="M710 38C710 33.5817 713.582 30 718 30H732C736.418 30 740 33.5817 740 38V52C740 56.4183 736.418 60 732 60H718C713.582 60 710 56.4183 710 52V38Z" fill="#110522"/>
<path d="M45 80C45 75.5817 48.5817 72 53 72H67C71.4183 72 75 75.5817 75 80V94C75 98.4183 71.4183 102 67 102H53C48.5817 102 45 98.4183 45 94V80Z" fill="#110522"/>
<path d="M85 80C85 75.5817 88.5817 72 93 72H107C111.418 72 115 75.5817 115 80V94C115 98.4183 111.418 102 107 102H93C88.5817 102 85 98.4183 85 94V80Z" fill="#110522"/>
<path d="M125 80C125 75.5817 128.582 72 133 72H147C151.418 72 155 75.5817 155 80V94C155 98.4183 151.418 102 147 102H133C128.582 102 125 98.4183 125 94V80Z" fill="#110522"/>
<path d="M165 80C165 75.5817 168.582 72 173 72H187C191.418 72 195 75.5817 195 80V94C195 98.4183 191.418 102 187 102H173C168.582 102 165 98.4183 165 94V80Z" fill="#110522"/>
<path d="M205 80C205 75.5817 208.582 72 213 72H227C231.418 72 235 75.5817 235 80V94C235 98.4183 231.418 102 227 102H213C208.582 102 205 98.4183 205 94V80Z" fill="#110522"/>
<path d="M245 80C245 75.5817 248.582 72 253 72H267C271.418 72 275 75.5817 275 80V94C275 98.4183 271.418 102 267 102H253C248.582 102 245 98.4183 245 94V80Z" fill="#110522"/>
<path d="M285 80C285 75.5817 288.582 72 293 72H307C311.418 72 315 75.5817 315 80V94C315 98.4183 311.418 102 307 102H293C288.582 102 285 98.4183 285 94V80Z" fill="#110522"/>
<path d="M325 80C325 75.5817 328.582 72 333 72H347C351.418 72 355 75.5817 355 80V94C355 98.4183 351.418 102 347 102H333C328.582 102 325 98.4183 325 94V80Z" fill="#110522"/>
<path d="M365 80C365 75.5817 368.582 72 373 72H387C391.418 72 395 75.5817 395 80V94C395 98.4183 391.418 102 387 102H373C368.582 102 365 98.4183 365 94V80Z" fill="#110522"/>
<path d="M405 80C405 75.5817 408.582 72 413 72H427C431.418 72 435 75.5817 435 80V94C435 98.4183 431.418 102 427 102H413C408.582 102 405 98.4183 405 94V80Z" fill="#110522"/>
<path d="M445 80C445 75.5817 448.582 72 453 72H467C471.418 72 475 75.5817 475 80V94C475 98.4183 471.418 102 467 102H453C448.582 102 445 98.4183 445 94V80Z" fill="#110522"/>
<path d="M490 80C490 75.5817 493.582 72 498 72H512C516.418 72 520 75.5817 520 80V94C520 98.4183 516.418 102 512 102H498C493.582 102 490 98.4183 490 94V80Z" fill="#110522"/>
<path d="M530 80C530 75.5817 533.582 72 538 72H552C556.418 72 560 75.5817 560 80V94C560 98.4183 556.418 102 552 102H538C533.582 102 530 98.4183 530 94V80Z" fill="#110522"/>
<path d="M570 80C570 75.5817 573.582 72 578 72H592C596.418 72 600 75.5817 600 80V94C600 98.4183 596.418 102 592 102H578C573.582 102 570 98.4183 570 94V80Z" fill="#110522"/>
<path d="M610 80C610 75.5817 613.582 72 618 72H632C636.418 72 640 75.5817 640 80V94C640 98.4183 636.418 102 632 102H618C613.582 102 610 98.4183 610 94V80Z" fill="#110522"/>
<path d="M650 80C650 75.5817 653.582 72 658 72H672C676.418 72 680 75.5817 680 80V94C680 98.4183 676.418 102 672 102H658C653.582 102 650 98.4183 650 94V80Z" fill="#110522"/>
<path d="M30 122C30 117.582 33.5817 114 38 114H52C56.4183 114 60 117.582 60 122V136C60 140.418 56.4183 144 52 144H38C33.5817 144 30 140.418 30 136V122Z" fill="#110522"/>
<path d="M70 122C70 117.582 73.5817 114 78 114H92C96.4183 114 100 117.582 100 122V136C100 140.418 96.4183 144 92 144H78C73.5817 144 70 140.418 70 136V122Z" fill="#110522"/>
<path d="M110 122C110 117.582 113.582 114 118 114H132C136.418 114 140 117.582 140 122V136C140 140.418 136.418 144 132 144H118C113.582 144 110 140.418 110 136V122Z" fill="#110522"/>
<path d="M150 122C150 117.582 153.582 114 158 114H172C176.418 114 180 117.582 180 122V136C180 140.418 176.418 144 172 144H158C153.582 144 150 140.418 150 136V122Z" fill="#110522"/>
<path d="M190 122C190 117.582 193.582 114 198 114H212C216.418 114 220 117.582 220 122V136C220 140.418 216.418 144 212 144H198C193.582 144 190 140.418 190 136V122Z" fill="#110522"/>
<path d="M230 122C230 117.582 233.582 114 238 114H252C256.418 114 260 117.582 260 122V136C260 140.418 256.418 144 252 144H238C233.582 144 230 140.418 230 136V122Z" fill="#110522"/>
<path d="M270 122C270 117.582 273.582 114 278 114H292C296.418 114 300 117.582 300 122V136C300 140.418 296.418 144 292 144H278C273.582 144 270 140.418 270 136V122Z" fill="#110522"/>
<path d="M310 122C310 117.582 313.582 114 318 114H332C336.418 114 340 117.582 340 122V136C340 140.418 336.418 144 332 144H318C313.582 144 310 140.418 310 136V122Z" fill="#110522"/>
<path d="M350 122C350 117.582 353.582 114 358 114H372C376.418 114 380 117.582 380 122V136C380 140.418 376.418 144 372 144H358C353.582 144 350 140.418 350 136V122Z" fill="#110522"/>
<path d="M390 122C390 117.582 393.582 114 398 114H412C416.418 114 420 117.582 420 122V136C420 140.418 416.418 144 412 144H398C393.582 144 390 140.418 390 136V122Z" fill="#110522"/>
<path d="M430 122C430 117.582 433.582 114 438 114H452C456.418 114 460 117.582 460 122V136C460 140.418 456.418 144 452 144H438C433.582 144 430 140.418 430 136V122Z" fill="#110522"/>
<path d="M470 122C470 117.582 473.582 114 478 114H492C496.418 114 500 117.582 500 122V136C500 140.418 496.418 144 492 144H478C473.582 144 470 140.418 470 136V122Z" fill="#110522"/>
<path d="M510 122C510 117.582 513.582 114 518 114H532C536.418 114 540 117.582 540 122V136C540 140.418 536.418 144 532 144H518C513.582 144 510 140.418 510 136V122Z" fill="#110522"/>
<path d="M550 122C550 117.582 553.582 114 558 114H572C576.418 114 580 117.582 580 122V136C580 140.418 576.418 144 572 144H558C553.582 144 550 140.418 550 136V122Z" fill="#110522"/>
<path d="M590 122C590 117.582 593.582 114 598 114H612C616.418 114 620 117.582 620 122V136C620 140.418 616.418 144 612 144H598C593.582 144 590 140.418 590 136V122Z" fill="#110522"/>
<path d="M60 164C60 159.582 63.5817 156 68 156H82C86.4183 156 90 159.582 90 164V178C90 182.418 86.4183 186 82 186H68C63.5817 186 60 182.418 60 178V164Z" fill="#110522"/>
<path d="M100 164C100 159.582 103.582 156 108 156H122C126.418 156 130 159.582 130 164V178C130 182.418 126.418 186 122 186H108C103.582 186 100 182.418 100 178V164Z" fill="#110522"/>
<path d="M140 164C140 159.582 143.582 156 148 156H162C166.418 156 170 159.582 170 164V178C170 182.418 166.418 186 162 186H148C143.582 186 140 182.418 140 178V164Z" fill="#110522"/>
<path d="M180 164C180 159.582 183.582 156 188 156H202C206.418 156 210 159.582 210 164V178C210 182.418 206.418 186 202 186H188C183.582 186 180 182.418 180 178V164Z" fill="#110522"/>
<path d="M220 164C220 159.582 223.582 156 228 156H242C246.418 156 250 159.582 250 164V178C250 182.418 246.418 186 242 186H228C223.582 186 220 182.418 220 178V164Z" fill="#110522"/>
<path d="M260 164C260 159.582 263.582 156 268 156H282C286.418 156 290 159.582 290 164V178C290 182.418 286.418 186 282 186H268C263.582 186 260 182.418 260 178V164Z" fill="#110522"/>
<path d="M300 164C300 159.582 303.582 156 308 156H322C326.418 156 330 159.582 330 164V178C330 182.418 326.418 186 322 186H308C303.582 186 300 182.418 300 178V164Z" fill="#110522"/>
<path d="M340 164C340 159.582 343.582 156 348 156H362C366.418 156 370 159.582 370 164V178C370 182.418 366.418 186 362 186H348C343.582 186 340 182.418 340 178V164Z" fill="#110522"/>
<path d="M380 164C380 159.582 383.582 156 388 156H402C406.418 156 410 159.582 410 164V178C410 182.418 406.418 186 402 186H388C383.582 186 380 182.418 380 178V164Z" fill="#110522"/>
<path d="M420 164C420 159.582 423.582 156 428 156H442C446.418 156 450 159.582 450 164V178C450 182.418 446.418 186 442 186H428C423.582 186 420 182.418 420 178V164Z" fill="#110522"/>
<path d="M460 164C460 159.582 463.582 156 468 156H482C486.418 156 490 159.582 490 164V178C490 182.418 486.418 186 482 186H468C463.582 186 460 182.418 460 178V164Z" fill="#110522"/>
<path d="M30 206C30 201.582 33.5817 198 38 198H52C56.4183 198 60 201.582 60 206V220C60 224.418 56.4183 228 52 228H38C33.5817 228 30 224.418 30 220V206Z" fill="#110522"/>
<path d="M70 206C70 201.582 73.5817 198 78 198H92C96.4183 198 100 201.582 100 206V220C100 224.418 96.4183 228 92 228H78C73.5817 228 70 224.418 70 220V206Z" fill="#110522"/>
<path d="M110 206C110 201.582 113.582 198 118 198H132C136.418 198 140 201.582 140 206V220C140 224.418 136.418 228 132 228H118C113.582 228 110 224.418 110 220V206Z" fill="#110522"/>
<path d="M150 206C150 201.582 153.582 198 158 198H172C176.418 198 180 201.582 180 206V220C180 224.418 176.418 228 172 228H158C153.582 228 150 224.418 150 220V206Z" fill="#110522"/>
<path d="M190 206C190 201.582 193.582 198 198 198H212C216.418 198 220 201.582 220 206V220C220 224.418 216.418 228 212 228H198C193.582 228 190 224.418 190 220V206Z" fill="#110522"/>
<path d="M230 206C230 201.582 233.582 198 238 198H252C256.418 198 260 201.582 260 206V220C260 224.418 256.418 228 252 228H238C233.582 228 230 224.418 230 220V206Z" fill="#110522"/>
<path d="M270 206C270 201.582 273.582 198 278 198H292C296.418 198 300 201.582 300 206V220C300 224.418 296.418 228 292 228H278C273.582 228 270 224.418 270 220V206Z" fill="#110522"/>
<path d="M310 206C310 201.582 313.582 198 318 198H332C336.418 198 340 201.582 340 206V220C340 224.418 336.418 228 332 228H318C313.582 228 310 224.418 310 220V206Z" fill="#110522"/>
<path d="M350 206C350 201.582 353.582 198 358 198H372C376.418 198 380 201.582 380 206V220C380 224.418 376.418 228 372 228H358C353.582 228 350 224.418 350 220V206Z" fill="#110522"/>
<path d="M390 206C390 201.582 393.582 198 398 198H412C416.418 198 420 201.582 420 206V220C420 224.418 416.418 228 412 228H398C393.582 228 390 224.418 390 220V206Z" fill="#110522"/>
<path d="M430 206C430 201.582 433.582 198 438 198H452C456.418 198 460 201.582 460 206V220C460 224.418 456.418 228 452 228H438C433.582 228 430 224.418 430 220V206Z" fill="#110522"/>
<path d="M470 206C470 201.582 473.582 198 478 198H492C496.418 198 500 201.582 500 206V220C500 224.418 496.418 228 492 228H478C473.582 228 470 224.418 470 220V206Z" fill="#110522"/>
<path d="M510 206C510 201.582 513.582 198 518 198H532C536.418 198 540 201.582 540 206V220C540 224.418 536.418 228 532 228H518C513.582 228 510 224.418 510 220V206Z" fill="#110522"/>
<path d="M550 206C550 201.582 553.582 198 558 198H572C576.418 198 580 201.582 580 206V220C580 224.418 576.418 228 572 228H558C553.582 228 550 224.418 550 220V206Z" fill="#110522"/>
<path d="M505 248C505 243.582 508.582 240 513 240H527C531.418 240 535 243.582 535 248V262C535 266.418 531.418 270 527 270H513C508.582 270 505 266.418 505 262V248Z" fill="#110522"/>
<path d="M545 248C545 243.582 548.582 240 553 240H567C571.418 240 575 243.582 575 248V262C575 266.418 571.418 270 567 270H553C548.582 270 545 266.418 545 262V248Z" fill="#110522"/>
<path d="M585 248C585 243.582 588.582 240 593 240H607C611.418 240 615 243.582 615 248V262C615 266.418 611.418 270 607 270H593C588.582 270 585 266.418 585 262V248Z" fill="#110522"/>
<path d="M60 248C60 243.582 63.5817 240 68 240H82C86.4183 240 90 243.582 90 248V262C90 266.418 86.4183 270 82 270H68C63.5817 270 60 266.418 60 262V248Z" fill="#110522"/>
<path d="M100 248C100 243.582 103.582 240 108 240H122C126.418 240 130 243.582 130 248V262C130 266.418 126.418 270 122 270H108C103.582 270 100 266.418 100 262V248Z" fill="#110522"/>
<path d="M140 248C140 243.582 143.582 240 148 240H162C166.418 240 170 243.582 170 248V262C170 266.418 166.418 270 162 270H148C143.582 270 140 266.418 140 262V248Z" fill="#110522"/>
<path d="M180 248C180 243.582 183.582 240 188 240H202C206.418 240 210 243.582 210 248V262C210 266.418 206.418 270 202 270H188C183.582 270 180 266.418 180 262V248Z" fill="#110522"/>
<path d="M220 248C220 243.582 223.582 240 228 240H242C246.418 240 250 243.582 250 248V262C250 266.418 246.418 270 242 270H228C223.582 270 220 266.418 220 262V248Z" fill="#110522"/>
<path d="M260 248C260 243.582 263.582 240 268 240H282C286.418 240 290 243.582 290 248V262C290 266.418 286.418 270 282 270H268C263.582 270 260 266.418 260 262V248Z" fill="#110522"/>
<path d="M300 248C300 243.582 303.582 240 308 240H322C326.418 240 330 243.582 330 248V262C330 266.418 326.418 270 322 270H308C303.582 270 300 266.418 300 262V248Z" fill="#110522"/>
<path d="M340 248C340 243.582 343.582 240 348 240H362C366.418 240 370 243.582 370 248V262C370 266.418 366.418 270 362 270H348C343.582 270 340 266.418 340 262V248Z" fill="#110522"/>
<path d="M380 248C380 243.582 383.582 240 388 240H402C406.418 240 410 243.582 410 248V262C410 266.418 406.418 270 402 270H388C383.582 270 380 266.418 380 262V248Z" fill="#110522"/>
<path d="M420 248C420 243.582 423.582 240 428 240H442C446.418 240 450 243.582 450 248V262C450 266.418 446.418 270 442 270H428C423.582 270 420 266.418 420 262V248Z" fill="#110522"/>
<path d="M460 248C460 243.582 463.582 240 468 240H482C486.418 240 490 243.582 490 248V262C490 266.418 486.418 270 482 270H468C463.582 270 460 266.418 460 262V248Z" fill="#110522"/>
<path d="M470 290C470 285.582 473.582 282 478 282H492C496.418 282 500 285.582 500 290V304C500 308.418 496.418 312 492 312H478C473.582 312 470 308.418 470 304V290Z" fill="#110522"/>
<path d="M515 290C515 285.582 518.582 282 523 282H537C541.418 282 545 285.582 545 290V304C545 308.418 541.418 312 537 312H523C518.582 312 515 308.418 515 304V290Z" fill="#110522"/>
<path d="M25 290C25 285.582 28.5817 282 33 282H47C51.4183 282 55 285.582 55 290V304C55 308.418 51.4183 312 47 312H33C28.5817 312 25 308.418 25 304V290Z" fill="#110522"/>
<path d="M65 290C65 285.582 68.5817 282 73 282H87C91.4183 282 95 285.582 95 290V304C95 308.418 91.4183 312 87 312H73C68.5817 312 65 308.418 65 304V290Z" fill="#110522"/>
<path d="M105 290C105 285.582 108.582 282 113 282H127C131.418 282 135 285.582 135 290V304C135 308.418 131.418 312 127 312H113C108.582 312 105 308.418 105 304V290Z" fill="#110522"/>
<path d="M145 290C145 285.582 148.582 282 153 282H167C171.418 282 175 285.582 175 290V304C175 308.418 171.418 312 167 312H153C148.582 312 145 308.418 145 304V290Z" fill="#110522"/>
<path d="M185 290C185 285.582 188.582 282 193 282H207C211.418 282 215 285.582 215 290V304C215 308.418 211.418 312 207 312H193C188.582 312 185 308.418 185 304V290Z" fill="#110522"/>
<path d="M225 290C225 285.582 228.582 282 233 282H247C251.418 282 255 285.582 255 290V304C255 308.418 251.418 312 247 312H233C228.582 312 225 308.418 225 304V290Z" fill="#110522"/>
<path d="M265 290C265 285.582 268.582 282 273 282H287C291.418 282 295 285.582 295 290V304C295 308.418 291.418 312 287 312H273C268.582 312 265 308.418 265 304V290Z" fill="#110522"/>
<path d="M305 290C305 285.582 308.582 282 313 282H327C331.418 282 335 285.582 335 290V304C335 308.418 331.418 312 327 312H313C308.582 312 305 308.418 305 304V290Z" fill="#110522"/>
<path d="M345 290C345 285.582 348.582 282 353 282H367C371.418 282 375 285.582 375 290V304C375 308.418 371.418 312 367 312H353C348.582 312 345 308.418 345 304V290Z" fill="#110522"/>
<path d="M385 290C385 285.582 388.582 282 393 282H407C411.418 282 415 285.582 415 290V304C415 308.418 411.418 312 407 312H393C388.582 312 385 308.418 385 304V290Z" fill="#110522"/>
<path d="M425 290C425 285.582 428.582 282 433 282H447C451.418 282 455 285.582 455 290V304C455 308.418 451.418 312 447 312H433C428.582 312 425 308.418 425 304V290Z" fill="#110522"/>
<path d="M40 332C40 327.582 43.5817 324 48 324H62C66.4183 324 70 327.582 70 332V346C70 350.418 66.4183 354 62 354H48C43.5817 354 40 350.418 40 346V332Z" fill="#110522"/>
<path d="M80 332C80 327.582 83.5817 324 88 324H102C106.418 324 110 327.582 110 332V346C110 350.418 106.418 354 102 354H88C83.5817 354 80 350.418 80 346V332Z" fill="#110522"/>
<path d="M120 332C120 327.582 123.582 324 128 324H142C146.418 324 150 327.582 150 332V346C150 350.418 146.418 354 142 354H128C123.582 354 120 350.418 120 346V332Z" fill="#110522"/>
<path d="M160 332C160 327.582 163.582 324 168 324H182C186.418 324 190 327.582 190 332V346C190 350.418 186.418 354 182 354H168C163.582 354 160 350.418 160 346V332Z" fill="#110522"/>
<path d="M200 332C200 327.582 203.582 324 208 324H222C226.418 324 230 327.582 230 332V346C230 350.418 226.418 354 222 354H208C203.582 354 200 350.418 200 346V332Z" fill="#110522"/>
<path d="M240 332C240 327.582 243.582 324 248 324H262C266.418 324 270 327.582 270 332V346C270 350.418 266.418 354 262 354H248C243.582 354 240 350.418 240 346V332Z" fill="#110522"/>
<path d="M280 332C280 327.582 283.582 324 288 324H302C306.418 324 310 327.582 310 332V346C310 350.418 306.418 354 302 354H288C283.582 354 280 350.418 280 346V332Z" fill="#110522"/>
<path d="M320 332C320 327.582 323.582 324 328 324H342C346.418 324 350 327.582 350 332V346C350 350.418 346.418 354 342 354H328C323.582 354 320 350.418 320 346V332Z" fill="#110522"/>
<path d="M360 332C360 327.582 363.582 324 368 324H382C386.418 324 390 327.582 390 332V346C390 350.418 386.418 354 382 354H368C363.582 354 360 350.418 360 346V332Z" fill="#110522"/>
<path d="M400 332C400 327.582 403.582 324 408 324H422C426.418 324 430 327.582 430 332V346C430 350.418 426.418 354 422 354H408C403.582 354 400 350.418 400 346V332Z" fill="#110522"/>
<path d="M60 374C60 369.582 63.5817 366 68 366H82C86.4183 366 90 369.582 90 374V388C90 392.418 86.4183 396 82 396H68C63.5817 396 60 392.418 60 388V374Z" fill="#110522"/>
<path d="M100 374C100 369.582 103.582 366 108 366H122C126.418 366 130 369.582 130 374V388C130 392.418 126.418 396 122 396H108C103.582 396 100 392.418 100 388V374Z" fill="#110522"/>
<path d="M140 374C140 369.582 143.582 366 148 366H162C166.418 366 170 369.582 170 374V388C170 392.418 166.418 396 162 396H148C143.582 396 140 392.418 140 388V374Z" fill="#110522"/>
<path d="M180 374C180 369.582 183.582 366 188 366H202C206.418 366 210 369.582 210 374V388C210 392.418 206.418 396 202 396H188C183.582 396 180 392.418 180 388V374Z" fill="#110522"/>
<path d="M220 374C220 369.582 223.582 366 228 366H242C246.418 366 250 369.582 250 374V388C250 392.418 246.418 396 242 396H228C223.582 396 220 392.418 220 388V374Z" fill="#110522"/>
<path d="M260 374C260 369.582 263.582 366 268 366H282C286.418 366 290 369.582 290 374V388C290 392.418 286.418 396 282 396H268C263.582 396 260 392.418 260 388V374Z" fill="#110522"/>
<path d="M300 374C300 369.582 303.582 366 308 366H322C326.418 366 330 369.582 330 374V388C330 392.418 326.418 396 322 396H308C303.582 396 300 392.418 300 388V374Z" fill="#110522"/>
<path d="M340 374C340 369.582 343.582 366 348 366H362C366.418 366 370 369.582 370 374V388C370 392.418 366.418 396 362 396H348C343.582 396 340 392.418 340 388V374Z" fill="#110522"/>
<path d="M40 416C40 411.582 43.5817 408 48 408H62C66.4183 408 70 411.582 70 416V430C70 434.418 66.4183 438 62 438H48C43.5817 438 40 434.418 40 430V416Z" fill="#110522"/>
<path d="M80 416C80 411.582 83.5817 408 88 408H102C106.418 408 110 411.582 110 416V430C110 434.418 106.418 438 102 438H88C83.5817 438 80 434.418 80 430V416Z" fill="#110522"/>
<path d="M120 416C120 411.582 123.582 408 128 408H142C146.418 408 150 411.582 150 416V430C150 434.418 146.418 438 142 438H128C123.582 438 120 434.418 120 430V416Z" fill="#110522"/>
<path d="M160 416C160 411.582 163.582 408 168 408H182C186.418 408 190 411.582 190 416V430C190 434.418 186.418 438 182 438H168C163.582 438 160 434.418 160 430V416Z" fill="#110522"/>
<path d="M200 416C200 411.582 203.582 408 208 408H222C226.418 408 230 411.582 230 416V430C230 434.418 226.418 438 222 438H208C203.582 438 200 434.418 200 430V416Z" fill="#110522"/>
<path d="M240 416C240 411.582 243.582 408 248 408H262C266.418 408 270 411.582 270 416V430C270 434.418 266.418 438 262 438H248C243.582 438 240 434.418 240 430V416Z" fill="#110522"/>
<path d="M60 458C60 453.582 63.5817 450 68 450H82C86.4183 450 90 453.582 90 458V472C90 476.418 86.4183 480 82 480H68C63.5817 480 60 476.418 60 472V458Z" fill="#110522"/>
<path d="M100 458C100 453.582 103.582 450 108 450H122C126.418 450 130 453.582 130 458V472C130 476.418 126.418 480 122 480H108C103.582 480 100 476.418 100 472V458Z" fill="#110522"/>
<path d="M140 458C140 453.582 143.582 450 148 450H162C166.418 450 170 453.582 170 458V472C170 476.418 166.418 480 162 480H148C143.582 480 140 476.418 140 472V458Z" fill="#110522"/>
<path d="M180 458C180 453.582 183.582 450 188 450H202C206.418 450 210 453.582 210 458V472C210 476.418 206.418 480 202 480H188C183.582 480 180 476.418 180 472V458Z" fill="#110522"/>
<path d="M220 458C220 453.582 223.582 450 228 450H242C246.418 450 250 453.582 250 458V472C250 476.418 246.418 480 242 480H228C223.582 480 220 476.418 220 472V458Z" fill="#110522"/>
<path d="M43 500C43 495.582 46.5817 492 51 492H65C69.4183 492 73 495.582 73 500V514C73 518.418 69.4183 522 65 522H51C46.5817 522 43 518.418 43 514V500Z" fill="#110522"/>
<path d="M83 500C83 495.582 86.5817 492 91 492H105C109.418 492 113 495.582 113 500V514C113 518.418 109.418 522 105 522H91C86.5817 522 83 518.418 83 514V500Z" fill="#110522"/>
<path d="M123 500C123 495.582 126.582 492 131 492H145C149.418 492 153 495.582 153 500V514C153 518.418 149.418 522 145 522H131C126.582 522 123 518.418 123 514V500Z" fill="#110522"/>
<path d="M163 500C163 495.582 166.582 492 171 492H185C189.418 492 193 495.582 193 500V514C193 518.418 189.418 522 185 522H171C166.582 522 163 518.418 163 514V500Z" fill="#110522"/>
<path d="M205 499C205 494.582 208.582 491 213 491H227C231.418 491 235 494.582 235 499V513C235 517.418 231.418 521 227 521H213C208.582 521 205 517.418 205 513V499Z" fill="#110522"/>
<path d="M28 542C28 537.582 31.5817 534 36 534H50C54.4183 534 58 537.582 58 542V556C58 560.418 54.4183 564 50 564H36C31.5817 564 28 560.418 28 556V542Z" fill="#110522"/>
<path d="M68 542C68 537.582 71.5817 534 76 534H90C94.4183 534 98 537.582 98 542V556C98 560.418 94.4183 564 90 564H76C71.5817 564 68 560.418 68 556V542Z" fill="#110522"/>
<path d="M108 542C108 537.582 111.582 534 116 534H130C134.418 534 138 537.582 138 542V556C138 560.418 134.418 564 130 564H116C111.582 564 108 560.418 108 556V542Z" fill="#110522"/>
<path d="M43 584C43 579.582 46.5817 576 51 576H65C69.4183 576 73 579.582 73 584V598C73 602.418 69.4183 606 65 606H51C46.5817 606 43 602.418 43 598V584Z" fill="#110522"/>
</svg>
