<svg width="100vw" height="100vh" viewBox="0 0 3000 900" preserveAspectRatio="none" xmlns="http://www.w3.org/2000/svg">

<path d="M1975 928.001C1975 923.582 1978.58 920 1983 920L1997 920C2001.42 920 2005 923.581 2005 928L2005 942C2005 946.418 2001.42 950 1997 950L1983 950C1978.58 950 1975 946.419 1975 942.001L1975 928.001Z" fill="#993399"/>
<path d="M1935 928.002C1935 923.583 1938.58 920.002 1943 920.002L1957 920.001C1961.42 920.001 1965 923.583 1965 928.001L1965 942.001C1965 946.419 1961.42 950.001 1957 950.001L1943 950.002C1938.58 950.002 1935 946.42 1935 942.002L1935 928.002Z" fill="#993399"/>
<path d="M1895 928.003C1895 923.585 1898.58 920.003 1903 920.003L1917 920.002C1921.42 920.002 1925 923.584 1925 928.002L1925 942.002C1925 946.42 1921.42 950.002 1917 950.002L1903 950.003C1898.58 950.003 1895 946.421 1895 942.003L1895 928.003Z" fill="#993399"/>
<path d="M1855 928.004C1855 923.586 1858.58 920.004 1863 920.004L1877 920.004C1881.42 920.003 1885 923.585 1885 928.003L1885 942.003C1885 946.422 1881.42 950.003 1877 950.004L1863 950.004C1858.58 950.004 1855 946.423 1855 942.004L1855 928.004Z" fill="#993399"/>
<path d="M1815 928.006C1815 923.587 1818.58 920.005 1823 920.005L1837 920.005C1841.42 920.005 1845 923.586 1845 928.005L1845 942.005C1845 946.423 1841.42 950.005 1837 950.005L1823 950.005C1818.58 950.005 1815 946.424 1815 942.006L1815 928.006Z" fill="#993399"/>
<path d="M1775 928.007C1775 923.588 1778.58 920.007 1783 920.007L1797 920.006C1801.42 920.006 1805 923.588 1805 928.006L1805 942.006C1805 946.424 1801.42 950.006 1797 950.006L1783 950.007C1778.58 950.007 1775 946.425 1775 942.007L1775 928.007Z" fill="#993399"/>
<path d="M1735 928.008C1735 923.59 1738.58 920.008 1743 920.008L1757 920.007C1761.42 920.007 1765 923.589 1765 928.007L1765 942.007C1765 946.425 1761.42 950.007 1757 950.007L1743 950.008C1738.58 950.008 1735 946.426 1735 942.008L1735 928.008Z" fill="#993399"/>
<path d="M1695 928.009C1695 923.591 1698.58 920.009 1703 920.009L1717 920.009C1721.42 920.008 1725 923.59 1725 928.008L1725 942.008C1725 946.427 1721.42 950.008 1717 950.009L1703 950.009C1698.58 950.009 1695 946.428 1695 942.009L1695 928.009Z" fill="#993399"/>
<path d="M1655 928.011C1655 923.592 1658.58 920.01 1663 920.01L1677 920.01C1681.42 920.01 1685 923.591 1685 928.01L1685 942.01C1685 946.428 1681.42 950.01 1677 950.01L1663 950.01C1658.58 950.01 1655 946.429 1655 942.011L1655 928.011Z" fill="#993399"/>
<path d="M1615 928.012C1615 923.594 1618.58 920.012 1623 920.012L1637 920.011C1641.42 920.011 1645 923.593 1645 928.011L1645 942.011C1645 946.429 1641.42 950.011 1637 950.011L1623 950.012C1618.58 950.012 1615 946.43 1615 942.012L1615 928.012Z" fill="#993399"/>
<path d="M1575 928.013C1575 923.595 1578.58 920.013 1583 920.013L1597 920.012C1601.42 920.012 1605 923.594 1605 928.012L1605 942.012C1605 946.43 1601.42 950.012 1597 950.012L1583 950.013C1578.58 950.013 1575 946.431 1575 942.013L1575 928.013Z" fill="#993399"/>
<path d="M1535 928.014C1535 923.596 1538.58 920.014 1543 920.014L1557 920.014C1561.42 920.013 1565 923.595 1565 928.013L1565 942.013C1565 946.432 1561.42 950.013 1557 950.014L1543 950.014C1538.58 950.014 1535 946.433 1535 942.014L1535 928.014Z" fill="#993399"/>
<path d="M1495 928.016C1495 923.597 1498.58 920.016 1503 920.015L1517 920.015C1521.42 920.015 1525 923.596 1525 928.015L1525 942.015C1525 946.433 1521.42 950.015 1517 950.015L1503 950.015C1498.58 950.016 1495 946.434 1495 942.016L1495 928.016Z" fill="#993399"/>
<path d="M1455 928.017C1455 923.599 1458.58 920.017 1463 920.017L1477 920.016C1481.42 920.016 1485 923.598 1485 928.016L1485 942.016C1485 946.434 1481.42 950.016 1477 950.016L1463 950.017C1458.58 950.017 1455 946.435 1455 942.017L1455 928.017Z" fill="#993399"/>
<path d="M1415 928.018C1415 923.6 1418.58 920.018 1423 920.018L1437 920.017C1441.42 920.017 1445 923.599 1445 928.017L1445 942.017C1445 946.435 1441.42 950.017 1437 950.017L1423 950.018C1418.58 950.018 1415 946.436 1415 942.018L1415 928.018Z" fill="#993399"/>
<path d="M1375 928.019C1375 923.601 1378.58 920.019 1383 920.019L1397 920.019C1401.42 920.019 1405 923.6 1405 928.018L1405 942.018C1405 946.437 1401.42 950.019 1397 950.019L1383 950.019C1378.58 950.019 1375 946.438 1375 942.019L1375 928.019Z" fill="#993399"/>
<path d="M1335 928.021C1335 923.602 1338.58 920.021 1343 920.02L1357 920.02C1361.42 920.02 1365 923.601 1365 928.02L1365 942.02C1365 946.438 1361.42 950.02 1357 950.02L1343 950.02C1338.58 950.021 1335 946.439 1335 942.021L1335 928.021Z" fill="#993399"/>
<path d="M1295 928.022C1295 923.604 1298.58 920.022 1303 920.022L1317 920.021C1321.42 920.021 1325 923.603 1325 928.021L1325 942.021C1325 946.439 1321.42 950.021 1317 950.021L1303 950.022C1298.58 950.022 1295 946.44 1295 942.022L1295 928.022Z" fill="#993399"/>
<path d="M1960 886.001C1960 881.583 1963.58 878.001 1968 878.001L1982 878C1986.42 878 1990 881.582 1990 886L1990 900C1990 904.418 1986.42 908 1982 908L1968 908.001C1963.58 908.001 1960 904.419 1960 900.001L1960 886.001Z" fill="#993399"/>
<path d="M1920 886.002C1920 881.584 1923.58 878.002 1928 878.002L1942 878.002C1946.42 878.001 1950 881.583 1950 886.001L1950 900.001C1950 904.42 1946.42 908.001 1942 908.002L1928 908.002C1923.58 908.002 1920 904.421 1920 900.002L1920 886.002Z" fill="#993399"/>
<path d="M1880 886.003C1880 881.585 1883.58 878.003 1888 878.003L1902 878.003C1906.42 878.003 1910 881.584 1910 886.003L1910 900.003C1910 904.421 1906.42 908.003 1902 908.003L1888 908.003C1883.58 908.003 1880 904.422 1880 900.003L1880 886.003Z" fill="#993399"/>
<path d="M1840 886.005C1840 881.586 1843.58 878.005 1848 878.004L1862 878.004C1866.42 878.004 1870 881.585 1870 886.004L1870 900.004C1870 904.422 1866.42 908.004 1862 908.004L1848 908.004C1843.58 908.005 1840 904.423 1840 900.005L1840 886.005Z" fill="#993399"/>
<path d="M1800 886.006C1800 881.588 1803.58 878.006 1808 878.006L1822 878.005C1826.42 878.005 1830 881.587 1830 886.005L1830 900.005C1830 904.423 1826.42 908.005 1822 908.005L1808 908.006C1803.58 908.006 1800 904.424 1800 900.006L1800 886.006Z" fill="#993399"/>
<path d="M1760 886.007C1760 881.589 1763.58 878.007 1768 878.007L1782 878.007C1786.42 878.006 1790 881.588 1790 886.006L1790 900.006C1790 904.425 1786.42 908.006 1782 908.007L1768 908.007C1763.58 908.007 1760 904.426 1760 900.007L1760 886.007Z" fill="#993399"/>
<path d="M1720 886.009C1720 881.59 1723.58 878.008 1728 878.008L1742 878.008C1746.42 878.008 1750 881.589 1750 886.008L1750 900.008C1750 904.426 1746.42 908.008 1742 908.008L1728 908.008C1723.58 908.008 1720 904.427 1720 900.009L1720 886.009Z" fill="#993399"/>
<path d="M1680 886.01C1680 881.591 1683.58 878.01 1688 878.01L1702 878.009C1706.42 878.009 1710 881.591 1710 886.009L1710 900.009C1710 904.427 1706.42 908.009 1702 908.009L1688 908.01C1683.58 908.01 1680 904.428 1680 900.01L1680 886.01Z" fill="#993399"/>
<path d="M1640 886.011C1640 881.593 1643.58 878.011 1648 878.011L1662 878.01C1666.42 878.01 1670 881.592 1670 886.01L1670 900.01C1670 904.428 1666.42 908.01 1662 908.01L1648 908.011C1643.58 908.011 1640 904.429 1640 900.011L1640 886.011Z" fill="#993399"/>
<path d="M1600 886.012C1600 881.594 1603.58 878.012 1608 878.012L1622 878.012C1626.42 878.011 1630 881.593 1630 886.011L1630 900.011C1630 904.43 1626.42 908.011 1622 908.012L1608 908.012C1603.58 908.012 1600 904.431 1600 900.012L1600 886.012Z" fill="#993399"/>
<path d="M1560 886.014C1560 881.595 1563.58 878.013 1568 878.013L1582 878.013C1586.42 878.013 1590 881.594 1590 886.013L1590 900.013C1590 904.431 1586.42 908.013 1582 908.013L1568 908.013C1563.58 908.013 1560 904.432 1560 900.014L1560 886.014Z" fill="#993399"/>
<path d="M1515 886.015C1515 881.597 1518.58 878.015 1523 878.015L1537 878.014C1541.42 878.014 1545 881.596 1545 886.014L1545 900.014C1545 904.432 1541.42 908.014 1537 908.014L1523 908.015C1518.58 908.015 1515 904.433 1515 900.015L1515 886.015Z" fill="#993399"/>
<path d="M1475 886.016C1475 881.598 1478.58 878.016 1483 878.016L1497 878.016C1501.42 878.015 1505 881.597 1505 886.015L1505 900.015C1505 904.434 1501.42 908.015 1497 908.016L1483 908.016C1478.58 908.016 1475 904.435 1475 900.016L1475 886.016Z" fill="#993399"/>
<path d="M1435 886.017C1435 881.599 1438.58 878.017 1443 878.017L1457 878.017C1461.42 878.017 1465 881.598 1465 886.017L1465 900.017C1465 904.435 1461.42 908.017 1457 908.017L1443 908.017C1438.58 908.017 1435 904.436 1435 900.017L1435 886.017Z" fill="#993399"/>
<path d="M1395 886.019C1395 881.6 1398.58 878.019 1403 878.018L1417 878.018C1421.42 878.018 1425 881.6 1425 886.018L1425 900.018C1425 904.436 1421.42 908.018 1417 908.018L1403 908.018C1398.58 908.019 1395 904.437 1395 900.019L1395 886.019Z" fill="#993399"/>
<path d="M1355 886.02C1355 881.602 1358.58 878.02 1363 878.02L1377 878.019C1381.42 878.019 1385 881.601 1385 886.019L1385 900.019C1385 904.437 1381.42 908.019 1377 908.019L1363 908.02C1358.58 908.02 1355 904.438 1355 900.02L1355 886.02Z" fill="#993399"/>
<path d="M1975 844C1975 839.582 1978.58 836 1983 836L1997 836C2001.42 836 2005 839.581 2005 844L2005 858C2005 862.418 2001.42 866 1997 866L1983 866C1978.58 866 1975 862.419 1975 858L1975 844Z" fill="#993399"/>
<path d="M1935 844.002C1935 839.584 1938.58 836.002 1943 836.002L1957 836.001C1961.42 836.001 1965 839.583 1965 844.001L1965 858.001C1965 862.419 1961.42 866.001 1957 866.001L1943 866.002C1938.58 866.002 1935 862.42 1935 858.002L1935 844.002Z" fill="#993399"/>
<path d="M1895 844.003C1895 839.585 1898.58 836.003 1903 836.003L1917 836.002C1921.42 836.002 1925 839.584 1925 844.002L1925 858.002C1925 862.42 1921.42 866.002 1917 866.002L1903 866.003C1898.58 866.003 1895 862.421 1895 858.003L1895 844.003Z" fill="#993399"/>
<path d="M1855 844.004C1855 839.586 1858.58 836.004 1863 836.004L1877 836.004C1881.42 836.003 1885 839.585 1885 844.003L1885 858.003C1885 862.422 1881.42 866.003 1877 866.004L1863 866.004C1858.58 866.004 1855 862.423 1855 858.004L1855 844.004Z" fill="#993399"/>
<path d="M1815 844.006C1815 839.587 1818.58 836.005 1823 836.005L1837 836.005C1841.42 836.005 1845 839.586 1845 844.005L1845 858.005C1845 862.423 1841.42 866.005 1837 866.005L1823 866.005C1818.58 866.005 1815 862.424 1815 858.006L1815 844.006Z" fill="#993399"/>
<path d="M1775 844.007C1775 839.589 1778.58 836.007 1783 836.007L1797 836.006C1801.42 836.006 1805 839.588 1805 844.006L1805 858.006C1805 862.424 1801.42 866.006 1797 866.006L1783 866.007C1778.58 866.007 1775 862.425 1775 858.007L1775 844.007Z" fill="#993399"/>
<path d="M1735 844.008C1735 839.59 1738.58 836.008 1743 836.008L1757 836.007C1761.42 836.007 1765 839.589 1765 844.007L1765 858.007C1765 862.425 1761.42 866.007 1757 866.007L1743 866.008C1738.58 866.008 1735 862.426 1735 858.008L1735 844.008Z" fill="#993399"/>
<path d="M1695 844.009C1695 839.591 1698.58 836.009 1703 836.009L1717 836.009C1721.42 836.008 1725 839.59 1725 844.008L1725 858.008C1725 862.427 1721.42 866.008 1717 866.009L1703 866.009C1698.58 866.009 1695 862.428 1695 858.009L1695 844.009Z" fill="#993399"/>
<path d="M1655 844.011C1655 839.592 1658.58 836.01 1663 836.01L1677 836.01C1681.42 836.01 1685 839.591 1685 844.01L1685 858.01C1685 862.428 1681.42 866.01 1677 866.01L1663 866.01C1658.58 866.01 1655 862.429 1655 858.011L1655 844.011Z" fill="#993399"/>
<path d="M1615 844.012C1615 839.594 1618.58 836.012 1623 836.012L1637 836.011C1641.42 836.011 1645 839.593 1645 844.011L1645 858.011C1645 862.429 1641.42 866.011 1637 866.011L1623 866.012C1618.58 866.012 1615 862.43 1615 858.012L1615 844.012Z" fill="#993399"/>
<path d="M1575 844.013C1575 839.595 1578.58 836.013 1583 836.013L1597 836.012C1601.42 836.012 1605 839.594 1605 844.012L1605 858.012C1605 862.43 1601.42 866.012 1597 866.012L1583 866.013C1578.58 866.013 1575 862.431 1575 858.013L1575 844.013Z" fill="#993399"/>
<path d="M1535 844.014C1535 839.596 1538.58 836.014 1543 836.014L1557 836.014C1561.42 836.014 1565 839.595 1565 844.013L1565 858.013C1565 862.432 1561.42 866.014 1557 866.014L1543 866.014C1538.58 866.014 1535 862.433 1535 858.014L1535 844.014Z" fill="#993399"/>
<path d="M1495 844.016C1495 839.597 1498.58 836.015 1503 836.015L1517 836.015C1521.42 836.015 1525 839.596 1525 844.015L1525 858.015C1525 862.433 1521.42 866.015 1517 866.015L1503 866.015C1498.58 866.015 1495 862.434 1495 858.016L1495 844.016Z" fill="#993399"/>
<path d="M1455 844.017C1455 839.599 1458.58 836.017 1463 836.017L1477 836.016C1481.42 836.016 1485 839.598 1485 844.016L1485 858.016C1485 862.434 1481.42 866.016 1477 866.016L1463 866.017C1458.58 866.017 1455 862.435 1455 858.017L1455 844.017Z" fill="#993399"/>
<path d="M1415 844.018C1415 839.6 1418.58 836.018 1423 836.018L1437 836.017C1441.42 836.017 1445 839.599 1445 844.017L1445 858.017C1445 862.435 1441.42 866.017 1437 866.017L1423 866.018C1418.58 866.018 1415 862.436 1415 858.018L1415 844.018Z" fill="#993399"/>
<path d="M1945 802.001C1945 797.583 1948.58 794.001 1953 794.001L1967 794.001C1971.41 794.001 1975 797.582 1975 802L1975 816C1975 820.419 1971.42 824.001 1967 824.001L1953 824.001C1948.58 824.001 1945 820.42 1945 816.001L1945 802.001Z" fill="#993399"/>
<path d="M1905 802.003C1905 797.584 1908.58 794.003 1913 794.002L1927 794.002C1931.41 794.002 1935 797.584 1935 802.002L1935 816.002C1935 820.42 1931.42 824.002 1927 824.002L1913 824.002C1908.58 824.003 1905 820.421 1905 816.003L1905 802.003Z" fill="#993399"/>
<path d="M1865 802.004C1865 797.586 1868.58 794.004 1873 794.004L1887 794.003C1891.41 794.003 1895 797.585 1895 802.003L1895 816.003C1895 820.421 1891.42 824.003 1887 824.003L1873 824.004C1868.58 824.004 1865 820.422 1865 816.004L1865 802.004Z" fill="#993399"/>
<path d="M1825 802.005C1825 797.587 1828.58 794.005 1833 794.005L1847 794.005C1851.41 794.004 1855 797.586 1855 802.004L1855 816.004C1855 820.423 1851.42 824.004 1847 824.005L1833 824.005C1828.58 824.005 1825 820.424 1825 816.005L1825 802.005Z" fill="#993399"/>
<path d="M1785 802.006C1785 797.588 1788.58 794.006 1793 794.006L1807 794.006C1811.41 794.006 1815 797.587 1815 802.006L1815 816.006C1815 820.424 1811.42 824.006 1807 824.006L1793 824.006C1788.58 824.006 1785 820.425 1785 816.006L1785 802.006Z" fill="#993399"/>
<path d="M1745 802.008C1745 797.589 1748.58 794.008 1753 794.008L1767 794.007C1771.41 794.007 1775 797.589 1775 802.007L1775 816.007C1775 820.425 1771.42 824.007 1767 824.007L1753 824.008C1748.58 824.008 1745 820.426 1745 816.008L1745 802.008Z" fill="#993399"/>
<path d="M1705 802.009C1705 797.591 1708.58 794.009 1713 794.009L1727 794.008C1731.41 794.008 1735 797.59 1735 802.008L1735 816.008C1735 820.426 1731.42 824.008 1727 824.008L1713 824.009C1708.58 824.009 1705 820.427 1705 816.009L1705 802.009Z" fill="#993399"/>
<path d="M1665 802.01C1665 797.592 1668.58 794.01 1673 794.01L1687 794.01C1691.41 794.009 1695 797.591 1695 802.009L1695 816.009C1695 820.428 1691.42 824.009 1687 824.01L1673 824.01C1668.58 824.01 1665 820.429 1665 816.01L1665 802.01Z" fill="#993399"/>
<path d="M1625 802.011C1625 797.593 1628.58 794.011 1633 794.011L1647 794.011C1651.41 794.011 1655 797.592 1655 802.011L1655 816.011C1655 820.429 1651.42 824.011 1647 824.011L1633 824.011C1628.58 824.011 1625 820.43 1625 816.011L1625 802.011Z" fill="#993399"/>
<path d="M1585 802.013C1585 797.594 1588.58 794.013 1593 794.013L1607 794.012C1611.41 794.012 1615 797.594 1615 802.012L1615 816.012C1615 820.43 1611.42 824.012 1607 824.012L1593 824.013C1588.58 824.013 1585 820.431 1585 816.013L1585 802.013Z" fill="#993399"/>
<path d="M1545 802.014C1545 797.596 1548.58 794.014 1553 794.014L1567 794.013C1571.41 794.013 1575 797.595 1575 802.013L1575 816.013C1575 820.431 1571.42 824.013 1567 824.013L1553 824.014C1548.58 824.014 1545 820.432 1545 816.014L1545 802.014Z" fill="#993399"/>
<path d="M1495 802.001C1495 797.583 1498.58 794.001 1503 794.001L1517 794C1521.42 794 1525 797.582 1525 802L1525 816C1525 820.418 1521.42 824 1517 824L1503 824.001C1498.58 824.001 1495 820.419 1495 816.001L1495 802.001Z" fill="#993399"/>
<path d="M1975 760C1974.99 755.582 1978.58 752 1982.99 752L1996.99 752C2001.41 752 2004.99 755.581 2005 760L2005 774C2005 778.418 2001.41 782 1997 782L1983 782C1978.58 782 1975 778.419 1975 774L1975 760Z" fill="#993399"/>
<path d="M1935 760.002C1934.99 755.583 1938.58 752.002 1942.99 752.002L1956.99 752.001C1961.41 752.001 1964.99 755.583 1965 760.001L1965 774.001C1965 778.419 1961.41 782.001 1957 782.001L1943 782.002C1938.58 782.002 1935 778.42 1935 774.002L1935 760.002Z" fill="#993399"/>
<path d="M1895 760.003C1894.99 755.585 1898.58 752.003 1902.99 752.003L1916.99 752.002C1921.41 752.002 1924.99 755.584 1925 760.002L1925 774.002C1925 778.42 1921.41 782.002 1917 782.002L1903 782.003C1898.58 782.003 1895 778.421 1895 774.003L1895 760.003Z" fill="#993399"/>
<path d="M1855 760.004C1854.99 755.586 1858.58 752.004 1862.99 752.004L1876.99 752.004C1881.41 752.004 1884.99 755.585 1885 760.003L1885 774.003C1885 778.422 1881.41 782.004 1877 782.004L1863 782.004C1858.58 782.004 1855 778.423 1855 774.004L1855 760.004Z" fill="#993399"/>
<path d="M1815 760.006C1814.99 755.587 1818.58 752.005 1822.99 752.005L1836.99 752.005C1841.41 752.005 1844.99 755.586 1845 760.005L1845 774.005C1845 778.423 1841.41 782.005 1837 782.005L1823 782.005C1818.58 782.005 1815 778.424 1815 774.006L1815 760.006Z" fill="#993399"/>
<path d="M1775 760.007C1774.99 755.588 1778.58 752.007 1782.99 752.007L1796.99 752.006C1801.41 752.006 1804.99 755.588 1805 760.006L1805 774.006C1805 778.424 1801.41 782.006 1797 782.006L1783 782.007C1778.58 782.007 1775 778.425 1775 774.007L1775 760.007Z" fill="#993399"/>
<path d="M1735 760.008C1734.99 755.59 1738.58 752.008 1742.99 752.008L1756.99 752.007C1761.41 752.007 1764.99 755.589 1765 760.007L1765 774.007C1765 778.425 1761.41 782.007 1757 782.007L1743 782.008C1738.58 782.008 1735 778.426 1735 774.008L1735 760.008Z" fill="#993399"/>
<path d="M1695 760.009C1694.99 755.591 1698.58 752.009 1702.99 752.009L1716.99 752.009C1721.41 752.009 1724.99 755.59 1725 760.008L1725 774.008C1725 778.427 1721.41 782.009 1717 782.009L1703 782.009C1698.58 782.009 1695 778.428 1695 774.009L1695 760.009Z" fill="#993399"/>
<path d="M1655 760.011C1654.99 755.592 1658.58 752.01 1662.99 752.01L1676.99 752.01C1681.41 752.01 1684.99 755.591 1685 760.01L1685 774.01C1685 778.428 1681.41 782.01 1677 782.01L1663 782.01C1658.58 782.01 1655 778.429 1655 774.011L1655 760.011Z" fill="#993399"/>
<path d="M1615 760.012C1614.99 755.594 1618.58 752.012 1622.99 752.012L1636.99 752.011C1641.41 752.011 1644.99 755.593 1645 760.011L1645 774.011C1645 778.429 1641.41 782.011 1637 782.011L1623 782.012C1618.58 782.012 1615 778.43 1615 774.012L1615 760.012Z" fill="#993399"/>
<path d="M1575 760.013C1574.99 755.595 1578.58 752.013 1582.99 752.013L1596.99 752.012C1601.41 752.012 1604.99 755.594 1605 760.012L1605 774.012C1605 778.43 1601.41 782.012 1597 782.012L1583 782.013C1578.58 782.013 1575 778.431 1575 774.013L1575 760.013Z" fill="#993399"/>
<path d="M1535 760.014C1534.99 755.596 1538.58 752.014 1542.99 752.014L1556.99 752.014C1561.41 752.014 1564.99 755.595 1565 760.013L1565 774.013C1565 778.432 1561.41 782.014 1557 782.014L1543 782.014C1538.58 782.014 1535 778.433 1535 774.014L1535 760.014Z" fill="#993399"/>
<path d="M1495 760.016C1494.99 755.597 1498.58 752.015 1502.99 752.015L1516.99 752.015C1521.41 752.015 1524.99 755.596 1525 760.015L1525 774.015C1525 778.433 1521.41 782.015 1517 782.015L1503 782.015C1498.58 782.015 1495 778.434 1495 774.016L1495 760.016Z" fill="#993399"/>
<path d="M1455 760.017C1454.99 755.599 1458.58 752.017 1462.99 752.017L1476.99 752.016C1481.41 752.016 1484.99 755.598 1485 760.016L1485 774.016C1485 778.434 1481.41 782.016 1477 782.016L1463 782.017C1458.58 782.017 1455 778.435 1455 774.017L1455 760.017Z" fill="#993399"/>
<path d="M1499.99 718.015C1499.99 713.597 1503.58 710.015 1507.99 710.015L1521.99 710.015C1526.41 710.015 1529.99 713.596 1529.99 718.014L1529.99 732.014C1529.99 736.433 1526.41 740.015 1521.99 740.015L1507.99 740.015C1503.58 740.015 1499.99 736.434 1499.99 732.015L1499.99 718.015Z" fill="#993399"/>
<path d="M1944.99 718.001C1944.99 713.583 1948.58 710.001 1952.99 710.001L1966.99 710.001C1971.41 710.001 1974.99 713.582 1974.99 718.001L1974.99 732.001C1974.99 736.419 1971.41 740.001 1966.99 740.001L1952.99 740.001C1948.58 740.001 1944.99 736.42 1944.99 732.001L1944.99 718.001Z" fill="#993399"/>
<path d="M1904.99 718.003C1904.99 713.584 1908.58 710.003 1912.99 710.002L1926.99 710.002C1931.41 710.002 1934.99 713.583 1934.99 718.002L1934.99 732.002C1934.99 736.42 1931.41 740.002 1926.99 740.002L1912.99 740.002C1908.58 740.003 1904.99 736.421 1904.99 732.003L1904.99 718.003Z" fill="#993399"/>
<path d="M1864.99 718.004C1864.99 713.586 1868.58 710.004 1872.99 710.004L1886.99 710.003C1891.41 710.003 1894.99 713.585 1894.99 718.003L1894.99 732.003C1894.99 736.421 1891.41 740.003 1886.99 740.003L1872.99 740.004C1868.58 740.004 1864.99 736.422 1864.99 732.004L1864.99 718.004Z" fill="#993399"/>
<path d="M1824.99 718.005C1824.99 713.587 1828.58 710.005 1832.99 710.005L1846.99 710.005C1851.41 710.004 1854.99 713.586 1854.99 718.004L1854.99 732.004C1854.99 736.423 1851.41 740.004 1846.99 740.005L1832.99 740.005C1828.58 740.005 1824.99 736.424 1824.99 732.005L1824.99 718.005Z" fill="#993399"/>
<path d="M1784.99 718.006C1784.99 713.588 1788.58 710.006 1792.99 710.006L1806.99 710.006C1811.41 710.006 1814.99 713.587 1814.99 718.006L1814.99 732.006C1814.99 736.424 1811.41 740.006 1806.99 740.006L1792.99 740.006C1788.58 740.006 1784.99 736.425 1784.99 732.006L1784.99 718.006Z" fill="#993399"/>
<path d="M1744.99 718.008C1744.99 713.589 1748.58 710.008 1752.99 710.008L1766.99 710.007C1771.41 710.007 1774.99 713.589 1774.99 718.007L1774.99 732.007C1774.99 736.425 1771.41 740.007 1766.99 740.007L1752.99 740.008C1748.58 740.008 1744.99 736.426 1744.99 732.008L1744.99 718.008Z" fill="#993399"/>
<path d="M1704.99 718.009C1704.99 713.591 1708.58 710.009 1712.99 710.009L1726.99 710.008C1731.41 710.008 1734.99 713.59 1734.99 718.008L1734.99 732.008C1734.99 736.426 1731.41 740.008 1726.99 740.008L1712.99 740.009C1708.58 740.009 1704.99 736.427 1704.99 732.009L1704.99 718.009Z" fill="#993399"/>
<path d="M1664.99 718.01C1664.99 713.592 1668.58 710.01 1672.99 710.01L1686.99 710.01C1691.41 710.009 1694.99 713.591 1694.99 718.009L1694.99 732.009C1694.99 736.428 1691.41 740.009 1686.99 740.01L1672.99 740.01C1668.58 740.01 1664.99 736.429 1664.99 732.01L1664.99 718.01Z" fill="#993399"/>
<path d="M1624.99 718.012C1624.99 713.593 1628.58 710.011 1632.99 710.011L1646.99 710.011C1651.41 710.011 1654.99 713.592 1654.99 718.011L1654.99 732.011C1654.99 736.429 1651.41 740.011 1646.99 740.011L1632.99 740.011C1628.58 740.011 1624.99 736.43 1624.99 732.012L1624.99 718.012Z" fill="#993399"/>
<path d="M1584.99 718.013C1584.99 713.594 1588.58 710.013 1592.99 710.013L1606.99 710.012C1611.41 710.012 1614.99 713.594 1614.99 718.012L1614.99 732.012C1614.99 736.43 1611.41 740.012 1606.99 740.012L1592.99 740.013C1588.58 740.013 1584.99 736.431 1584.99 732.013L1584.99 718.013Z" fill="#993399"/>
<path d="M1544.99 718.014C1544.99 713.596 1548.58 710.014 1552.99 710.014L1566.99 710.013C1571.41 710.013 1574.99 713.595 1574.99 718.013L1574.99 732.013C1574.99 736.431 1571.41 740.013 1566.99 740.013L1552.99 740.014C1548.58 740.014 1544.99 736.432 1544.99 732.014L1544.99 718.014Z" fill="#993399"/>
<path d="M1534.99 676.014C1534.99 671.596 1538.57 668.014 1542.99 668.014L1556.99 668.014C1561.41 668.014 1564.99 671.595 1564.99 676.013L1564.99 690.013C1564.99 694.432 1561.41 698.014 1556.99 698.014L1542.99 698.014C1538.57 698.014 1534.99 694.433 1534.99 690.014L1534.99 676.014Z" fill="#993399"/>
<path d="M1489.99 676.016C1489.99 671.597 1493.57 668.016 1497.99 668.015L1511.99 668.015C1516.41 668.015 1519.99 671.597 1519.99 676.015L1519.99 690.015C1519.99 694.433 1516.41 698.015 1511.99 698.015L1497.99 698.015C1493.57 698.016 1489.99 694.434 1489.99 690.016L1489.99 676.016Z" fill="#993399"/>
<path d="M1979.99 676C1979.99 671.582 1983.57 668 1987.99 668L2001.99 668C2006.41 667.999 2009.99 671.581 2009.99 675.999L2009.99 689.999C2009.99 694.418 2006.41 697.999 2001.99 698L1987.99 698C1983.57 698 1979.99 694.419 1979.99 690L1979.99 676Z" fill="#993399"/>
<path d="M1939.99 676.002C1939.99 671.583 1943.57 668.002 1947.99 668.001L1961.99 668.001C1966.41 668.001 1969.99 671.582 1969.99 676.001L1969.99 690.001C1969.99 694.419 1966.41 698.001 1961.99 698.001L1947.99 698.001C1943.57 698.002 1939.99 694.42 1939.99 690.002L1939.99 676.002Z" fill="#993399"/>
<path d="M1899.99 676.003C1899.99 671.585 1903.57 668.003 1907.99 668.003L1921.99 668.002C1926.41 668.002 1929.99 671.584 1929.99 676.002L1929.99 690.002C1929.99 694.42 1926.41 698.002 1921.99 698.002L1907.99 698.003C1903.57 698.003 1899.99 694.421 1899.99 690.003L1899.99 676.003Z" fill="#993399"/>
<path d="M1859.99 676.004C1859.99 671.586 1863.57 668.004 1867.99 668.004L1881.99 668.003C1886.41 668.003 1889.99 671.585 1889.99 676.003L1889.99 690.003C1889.99 694.421 1886.41 698.003 1881.99 698.003L1867.99 698.004C1863.57 698.004 1859.99 694.422 1859.99 690.004L1859.99 676.004Z" fill="#993399"/>
<path d="M1819.99 676.005C1819.99 671.587 1823.57 668.005 1827.99 668.005L1841.99 668.005C1846.41 668.005 1849.99 671.586 1849.99 676.004L1849.99 690.004C1849.99 694.423 1846.41 698.005 1841.99 698.005L1827.99 698.005C1823.57 698.005 1819.99 694.424 1819.99 690.005L1819.99 676.005Z" fill="#993399"/>
<path d="M1779.99 676.007C1779.99 671.588 1783.57 668.007 1787.99 668.006L1801.99 668.006C1806.41 668.006 1809.99 671.587 1809.99 676.006L1809.99 690.006C1809.99 694.424 1806.41 698.006 1801.99 698.006L1787.99 698.006C1783.57 698.007 1779.99 694.425 1779.99 690.007L1779.99 676.007Z" fill="#993399"/>
<path d="M1739.99 676.008C1739.99 671.59 1743.57 668.008 1747.99 668.008L1761.99 668.007C1766.41 668.007 1769.99 671.589 1769.99 676.007L1769.99 690.007C1769.99 694.425 1766.41 698.007 1761.99 698.007L1747.99 698.008C1743.57 698.008 1739.99 694.426 1739.99 690.008L1739.99 676.008Z" fill="#993399"/>
<path d="M1699.99 676.009C1699.99 671.591 1703.57 668.009 1707.99 668.009L1721.99 668.008C1726.41 668.008 1729.99 671.59 1729.99 676.008L1729.99 690.008C1729.99 694.426 1726.41 698.008 1721.99 698.008L1707.99 698.009C1703.57 698.009 1699.99 694.427 1699.99 690.009L1699.99 676.009Z" fill="#993399"/>
<path d="M1659.99 676.01C1659.99 671.592 1663.57 668.01 1667.99 668.01L1681.99 668.01C1686.41 668.01 1689.99 671.591 1689.99 676.009L1689.99 690.009C1689.99 694.428 1686.41 698.01 1681.99 698.01L1667.99 698.01C1663.57 698.01 1659.99 694.429 1659.99 690.01L1659.99 676.01Z" fill="#993399"/>
<path d="M1619.99 676.012C1619.99 671.593 1623.57 668.012 1627.99 668.011L1641.99 668.011C1646.41 668.011 1649.99 671.592 1649.99 676.011L1649.99 690.011C1649.99 694.429 1646.41 698.011 1641.99 698.011L1627.99 698.011C1623.57 698.012 1619.99 694.43 1619.99 690.012L1619.99 676.012Z" fill="#993399"/>
<path d="M1579.99 676.013C1579.99 671.595 1583.57 668.013 1587.99 668.013L1601.99 668.012C1606.41 668.012 1609.99 671.594 1609.99 676.012L1609.99 690.012C1609.99 694.43 1606.41 698.012 1601.99 698.012L1587.99 698.013C1583.57 698.013 1579.99 694.431 1579.99 690.013L1579.99 676.013Z" fill="#993399"/>
<path d="M1964.99 634.001C1964.99 629.583 1968.57 626.001 1972.99 626.001L1986.99 626C1991.41 626 1994.99 629.582 1994.99 634L1994.99 648C1994.99 652.418 1991.41 656 1986.99 656L1972.99 656.001C1968.57 656.001 1964.99 652.419 1964.99 648.001L1964.99 634.001Z" fill="#993399"/>
<path d="M1924.99 634.002C1924.99 629.584 1928.57 626.002 1932.99 626.002L1946.99 626.001C1951.41 626.001 1954.99 629.583 1954.99 634.001L1954.99 648.001C1954.99 652.419 1951.41 656.001 1946.99 656.001L1932.99 656.002C1928.57 656.002 1924.99 652.42 1924.99 648.002L1924.99 634.002Z" fill="#993399"/>
<path d="M1884.99 634.003C1884.99 629.585 1888.57 626.003 1892.99 626.003L1906.99 626.003C1911.41 626.003 1914.99 629.584 1914.99 634.002L1914.99 648.002C1914.99 652.421 1911.41 656.003 1906.99 656.003L1892.99 656.003C1888.57 656.003 1884.99 652.422 1884.99 648.003L1884.99 634.003Z" fill="#993399"/>
<path d="M1844.99 634.005C1844.99 629.586 1848.57 626.004 1852.99 626.004L1866.99 626.004C1871.41 626.004 1874.99 629.585 1874.99 634.004L1874.99 648.004C1874.99 652.422 1871.41 656.004 1866.99 656.004L1852.99 656.004C1848.57 656.004 1844.99 652.423 1844.99 648.005L1844.99 634.005Z" fill="#993399"/>
<path d="M1804.99 634.006C1804.99 629.588 1808.57 626.006 1812.99 626.006L1826.99 626.005C1831.41 626.005 1834.99 629.587 1834.99 634.005L1834.99 648.005C1834.99 652.423 1831.41 656.005 1826.99 656.005L1812.99 656.006C1808.57 656.006 1804.99 652.424 1804.99 648.006L1804.99 634.006Z" fill="#993399"/>
<path d="M1764.99 634.007C1764.99 629.589 1768.57 626.007 1772.99 626.007L1786.99 626.006C1791.41 626.006 1794.99 629.588 1794.99 634.006L1794.99 648.006C1794.99 652.424 1791.41 656.006 1786.99 656.006L1772.99 656.007C1768.57 656.007 1764.99 652.425 1764.99 648.007L1764.99 634.007Z" fill="#993399"/>
<path d="M1724.99 634.008C1724.99 629.59 1728.57 626.008 1732.99 626.008L1746.99 626.008C1751.41 626.008 1754.99 629.589 1754.99 634.007L1754.99 648.007C1754.99 652.426 1751.41 656.008 1746.99 656.008L1732.99 656.008C1728.57 656.008 1724.99 652.427 1724.99 648.008L1724.99 634.008Z" fill="#993399"/>
<path d="M1684.99 634.01C1684.99 629.591 1688.57 626.01 1692.99 626.009L1706.99 626.009C1711.41 626.009 1714.99 629.59 1714.99 634.009L1714.99 648.009C1714.99 652.427 1711.41 656.009 1706.99 656.009L1692.99 656.009C1688.57 656.01 1684.99 652.428 1684.99 648.01L1684.99 634.01Z" fill="#993399"/>
<path d="M1644.99 634.011C1644.99 629.593 1648.57 626.011 1652.99 626.011L1666.99 626.01C1671.41 626.01 1674.99 629.592 1674.99 634.01L1674.99 648.01C1674.99 652.428 1671.41 656.01 1666.99 656.01L1652.99 656.011C1648.57 656.011 1644.99 652.429 1644.99 648.011L1644.99 634.011Z" fill="#993399"/>
<path d="M1604.99 634.012C1604.99 629.594 1608.57 626.012 1612.99 626.012L1626.99 626.011C1631.41 626.011 1634.99 629.593 1634.99 634.011L1634.99 648.011C1634.99 652.429 1631.41 656.011 1626.99 656.011L1612.99 656.012C1608.57 656.012 1604.99 652.43 1604.99 648.012L1604.99 634.012Z" fill="#993399"/>
<path d="M1944.99 592.001C1944.99 587.583 1948.57 584.001 1952.99 584.001L1966.99 584.001C1971.41 584.001 1974.99 587.582 1974.99 592.001L1974.99 606.001C1974.99 610.419 1971.41 614.001 1966.99 614.001L1952.99 614.001C1948.57 614.001 1944.99 610.42 1944.99 606.001L1944.99 592.001Z" fill="#993399"/>
<path d="M1904.99 592.003C1904.99 587.584 1908.57 584.003 1912.99 584.002L1926.99 584.002C1931.41 584.002 1934.99 587.584 1934.99 592.002L1934.99 606.002C1934.99 610.42 1931.41 614.002 1926.99 614.002L1912.99 614.002C1908.57 614.003 1904.99 610.421 1904.99 606.003L1904.99 592.003Z" fill="#993399"/>
<path d="M1864.99 592.004C1864.99 587.586 1868.57 584.004 1872.99 584.004L1886.99 584.003C1891.41 584.003 1894.99 587.585 1894.99 592.003L1894.99 606.003C1894.99 610.421 1891.41 614.003 1886.99 614.003L1872.99 614.004C1868.57 614.004 1864.99 610.422 1864.99 606.004L1864.99 592.004Z" fill="#993399"/>
<path d="M1824.99 592.005C1824.99 587.587 1828.57 584.005 1832.99 584.005L1846.99 584.005C1851.41 584.004 1854.99 587.586 1854.99 592.004L1854.99 606.004C1854.99 610.423 1851.41 614.004 1846.99 614.005L1832.99 614.005C1828.57 614.005 1824.99 610.424 1824.99 606.005L1824.99 592.005Z" fill="#993399"/>
<path d="M1784.99 592.007C1784.99 587.588 1788.57 584.006 1792.99 584.006L1806.99 584.006C1811.41 584.006 1814.99 587.587 1814.99 592.006L1814.99 606.006C1814.99 610.424 1811.41 614.006 1806.99 614.006L1792.99 614.006C1788.57 614.006 1784.99 610.425 1784.99 606.007L1784.99 592.007Z" fill="#993399"/>
<path d="M1744.99 592.008C1744.99 587.589 1748.57 584.008 1752.99 584.008L1766.99 584.007C1771.41 584.007 1774.99 587.589 1774.99 592.007L1774.99 606.007C1774.99 610.425 1771.41 614.007 1766.99 614.007L1752.99 614.008C1748.57 614.008 1744.99 610.426 1744.99 606.008L1744.99 592.008Z" fill="#993399"/>
<path d="M1704.99 592.009C1704.99 587.591 1708.57 584.009 1712.99 584.009L1726.99 584.008C1731.41 584.008 1734.99 587.59 1734.99 592.008L1734.99 606.008C1734.99 610.426 1731.41 614.008 1726.99 614.008L1712.99 614.009C1708.57 614.009 1704.99 610.427 1704.99 606.009L1704.99 592.009Z" fill="#993399"/>
<path d="M1664.99 592.01C1664.99 587.592 1668.57 584.01 1672.99 584.01L1686.99 584.01C1691.41 584.009 1694.99 587.591 1694.99 592.009L1694.99 606.009C1694.99 610.428 1691.41 614.009 1686.99 614.01L1672.99 614.01C1668.57 614.01 1664.99 610.429 1664.99 606.01L1664.99 592.01Z" fill="#993399"/>
<path d="M1964.99 550.001C1964.99 545.583 1968.57 542.001 1972.99 542.001L1986.99 542C1991.41 542 1994.99 545.582 1994.99 550L1994.99 564C1994.99 568.418 1991.41 572 1986.99 572L1972.99 572.001C1968.57 572.001 1964.99 568.419 1964.99 564.001L1964.99 550.001Z" fill="#993399"/>
<path d="M1924.99 550.002C1924.99 545.584 1928.57 542.002 1932.99 542.002L1946.99 542.001C1951.41 542.001 1954.99 545.583 1954.99 550.001L1954.99 564.001C1954.99 568.419 1951.41 572.001 1946.99 572.001L1932.99 572.002C1928.57 572.002 1924.99 568.42 1924.99 564.002L1924.99 550.002Z" fill="#993399"/>
<path d="M1884.99 550.003C1884.99 545.585 1888.57 542.003 1892.99 542.003L1906.99 542.003C1911.41 542.003 1914.99 545.584 1914.99 550.002L1914.99 564.002C1914.99 568.421 1911.41 572.003 1906.99 572.003L1892.99 572.003C1888.57 572.003 1884.99 568.422 1884.99 564.003L1884.99 550.003Z" fill="#993399"/>
<path d="M1844.99 550.005C1844.99 545.586 1848.57 542.004 1852.99 542.004L1866.99 542.004C1871.41 542.004 1874.99 545.585 1874.99 550.004L1874.99 564.004C1874.99 568.422 1871.41 572.004 1866.99 572.004L1852.99 572.004C1848.57 572.004 1844.99 568.423 1844.99 564.005L1844.99 550.005Z" fill="#993399"/>
<path d="M1804.99 550.006C1804.99 545.588 1808.57 542.006 1812.99 542.006L1826.99 542.005C1831.41 542.005 1834.99 545.587 1834.99 550.005L1834.99 564.005C1834.99 568.423 1831.41 572.005 1826.99 572.005L1812.99 572.006C1808.57 572.006 1804.99 568.424 1804.99 564.006L1804.99 550.006Z" fill="#993399"/>
<path d="M1764.99 550.007C1764.99 545.589 1768.57 542.007 1772.99 542.007L1786.99 542.006C1791.41 542.006 1794.99 545.588 1794.99 550.006L1794.99 564.006C1794.99 568.424 1791.41 572.006 1786.99 572.006L1772.99 572.007C1768.57 572.007 1764.99 568.425 1764.99 564.007L1764.99 550.007Z" fill="#993399"/>
<path d="M1944.99 508.001C1944.99 503.583 1948.57 500.001 1952.99 500.001L1966.99 500.001C1971.41 500.001 1974.99 503.582 1974.99 508.001L1974.99 522.001C1974.99 526.419 1971.41 530.001 1966.99 530.001L1952.99 530.001C1948.57 530.001 1944.99 526.42 1944.99 522.001L1944.99 508.001Z" fill="#993399"/>
<path d="M1904.99 508.003C1904.99 503.584 1908.57 500.003 1912.99 500.002L1926.99 500.002C1931.41 500.002 1934.99 503.583 1934.99 508.002L1934.99 522.002C1934.99 526.42 1931.41 530.002 1926.99 530.002L1912.99 530.002C1908.57 530.003 1904.99 526.421 1904.99 522.003L1904.99 508.003Z" fill="#993399"/>
<path d="M1864.99 508.004C1864.99 503.586 1868.57 500.004 1872.99 500.004L1886.99 500.003C1891.41 500.003 1894.99 503.585 1894.99 508.003L1894.99 522.003C1894.99 526.421 1891.41 530.003 1886.99 530.003L1872.99 530.004C1868.57 530.004 1864.99 526.422 1864.99 522.004L1864.99 508.004Z" fill="#993399"/>
<path d="M1824.99 508.005C1824.99 503.587 1828.57 500.005 1832.99 500.005L1846.99 500.005C1851.41 500.004 1854.99 503.586 1854.99 508.004L1854.99 522.004C1854.99 526.423 1851.41 530.004 1846.99 530.005L1832.99 530.005C1828.57 530.005 1824.99 526.423 1824.99 522.005L1824.99 508.005Z" fill="#993399"/>
<path d="M1961.99 466.001C1961.99 461.583 1965.57 458.001 1969.99 458.001L1983.99 458C1988.4 458 1991.99 461.582 1991.99 466L1991.99 480C1991.99 484.418 1988.4 488 1983.99 488L1969.99 488.001C1965.57 488.001 1961.99 484.419 1961.99 480.001L1961.99 466.001Z" fill="#993399"/>
<path d="M1921.99 466.002C1921.99 461.584 1925.57 458.002 1929.99 458.002L1943.99 458.001C1948.4 458.001 1951.99 461.583 1951.99 466.001L1951.99 480.001C1951.99 484.42 1948.4 488.001 1943.99 488.001L1929.99 488.002C1925.57 488.002 1921.99 484.42 1921.99 480.002L1921.99 466.002Z" fill="#993399"/>
<path d="M1881.99 466.003C1881.99 461.585 1885.57 458.003 1889.99 458.003L1903.99 458.003C1908.4 458.003 1911.99 461.584 1911.99 466.002L1911.99 480.002C1911.99 484.421 1908.4 488.003 1903.99 488.003L1889.99 488.003C1885.57 488.003 1881.99 484.422 1881.99 480.003L1881.99 466.003Z" fill="#993399"/>
<path d="M1841.99 466.005C1841.99 461.586 1845.57 458.005 1849.99 458.004L1863.99 458.004C1868.4 458.004 1871.99 461.585 1871.99 466.004L1871.99 480.004C1871.99 484.422 1868.4 488.004 1863.99 488.004L1849.99 488.004C1845.57 488.005 1841.99 484.423 1841.99 480.005L1841.99 466.005Z" fill="#993399"/>
<path d="M1799.99 467.006C1799.99 462.588 1803.57 459.006 1807.99 459.006L1821.99 459.005C1826.4 459.005 1829.99 462.587 1829.99 467.005L1829.99 481.005C1829.99 485.423 1826.4 489.005 1821.99 489.005L1807.99 489.006C1803.57 489.006 1799.99 485.424 1799.99 481.006L1799.99 467.006Z" fill="#993399"/>
<path d="M1936.98 424.002C1936.98 419.583 1940.57 416.002 1944.98 416.001L1958.98 416.001C1963.4 416.001 1966.98 419.582 1966.98 424.001L1966.98 438.001C1966.99 442.419 1963.4 446.001 1958.99 446.001L1944.99 446.001C1940.57 446.002 1936.99 442.42 1936.98 438.002L1936.98 424.002Z" fill="#993399"/>
<path d="M1896.98 424.003C1896.98 419.585 1900.57 416.003 1904.98 416.003L1918.98 416.002C1923.4 416.002 1926.98 419.584 1926.98 424.002L1926.98 438.002C1926.99 442.42 1923.4 446.002 1918.99 446.002L1904.99 446.003C1900.57 446.003 1896.99 442.421 1896.98 438.003L1896.98 424.003Z" fill="#993399"/>
<path d="M1927 382.001C1927 377.583 1930.58 374.001 1935 374.001L1949 374C1953.42 374 1957 377.582 1957 382L1957 396C1957 400.418 1953.42 404 1949 404L1935 404.001C1930.58 404.001 1927 400.419 1927 396.001L1927 382.001Z" fill="#993399"/>
</svg>