<svg className="w-screen h-screen" viewBox="0 0 1000 500" fill="none" xmlns="http://www.w3.org/2000/svg">

<path d="M30 38C30 33.5817 33.5817 30 38 30H52C56.4183 30 60 33.5817 60 38V52C60 56.4183 56.4183 60 52 60H38C33.5817 60 30 56.4183 30 52V38Z" fill="#F2F0FF"/>
<path d="M70 38C70 33.5817 73.5817 30 78 30H92C96.4183 30 100 33.5817 100 38V52C100 56.4183 96.4183 60 92 60H78C73.5817 60 70 56.4183 70 52V38Z" fill="#F2F0FF"/>
<path d="M110 38C110 33.5817 113.582 30 118 30H132C136.418 30 140 33.5817 140 38V52C140 56.4183 136.418 60 132 60H118C113.582 60 110 56.4183 110 52V38Z" fill="#F2F0FF"/>
<path d="M150 38C150 33.5817 153.582 30 158 30H172C176.418 30 180 33.5817 180 38V52C180 56.4183 176.418 60 172 60H158C153.582 60 150 56.4183 150 52V38Z" fill="#F2F0FF"/>
<path d="M190 38C190 33.5817 193.582 30 198 30H212C216.418 30 220 33.5817 220 38V52C220 56.4183 216.418 60 212 60H198C193.582 60 190 56.4183 190 52V38Z" fill="#F2F0FF"/>
<path d="M230 38C230 33.5817 233.582 30 238 30H252C256.418 30 260 33.5817 260 38V52C260 56.4183 256.418 60 252 60H238C233.582 60 230 56.4183 230 52V38Z" fill="#F2F0FF"/>
<path d="M270 38C270 33.5817 273.582 30 278 30H292C296.418 30 300 33.5817 300 38V52C300 56.4183 296.418 60 292 60H278C273.582 60 270 56.4183 270 52V38Z" fill="#F2F0FF"/>
<path d="M310 38C310 33.5817 313.582 30 318 30H332C336.418 30 340 33.5817 340 38V52C340 56.4183 336.418 60 332 60H318C313.582 60 310 56.4183 310 52V38Z" fill="#F2F0FF"/>
<path d="M350 38C350 33.5817 353.582 30 358 30H372C376.418 30 380 33.5817 380 38V52C380 56.4183 376.418 60 372 60H358C353.582 60 350 56.4183 350 52V38Z" fill="#F2F0FF"/>
<path d="M390 38C390 33.5817 393.582 30 398 30H412C416.418 30 420 33.5817 420 38V52C420 56.4183 416.418 60 412 60H398C393.582 60 390 56.4183 390 52V38Z" fill="#F2F0FF"/>
<path d="M430 38C430 33.5817 433.582 30 438 30H452C456.418 30 460 33.5817 460 38V52C460 56.4183 456.418 60 452 60H438C433.582 60 430 56.4183 430 52V38Z" fill="#F2F0FF"/>
<path d="M470 38C470 33.5817 473.582 30 478 30H492C496.418 30 500 33.5817 500 38V52C500 56.4183 496.418 60 492 60H478C473.582 60 470 56.4183 470 52V38Z" fill="#F2F0FF"/>
<path d="M510 38C510 33.5817 513.582 30 518 30H532C536.418 30 540 33.5817 540 38V52C540 56.4183 536.418 60 532 60H518C513.582 60 510 56.4183 510 52V38Z" fill="#F2F0FF"/>
<path d="M550 38C550 33.5817 553.582 30 558 30H572C576.418 30 580 33.5817 580 38V52C580 56.4183 576.418 60 572 60H558C553.582 60 550 56.4183 550 52V38Z" fill="#F2F0FF"/>
<path d="M590 38C590 33.5817 593.582 30 598 30H612C616.418 30 620 33.5817 620 38V52C620 56.4183 616.418 60 612 60H598C593.582 60 590 56.4183 590 52V38Z" fill="#F2F0FF"/>
<path d="M630 38C630 33.5817 633.582 30 638 30H652C656.418 30 660 33.5817 660 38V52C660 56.4183 656.418 60 652 60H638C633.582 60 630 56.4183 630 52V38Z" fill="#F2F0FF"/>
<path d="M670 38C670 33.5817 673.582 30 678 30H692C696.418 30 700 33.5817 700 38V52C700 56.4183 696.418 60 692 60H678C673.582 60 670 56.4183 670 52V38Z" fill="#F2F0FF"/>
<path d="M710 38C710 33.5817 713.582 30 718 30H732C736.418 30 740 33.5817 740 38V52C740 56.4183 736.418 60 732 60H718C713.582 60 710 56.4183 710 52V38Z" fill="#F2F0FF"/>
<path d="M45 80C45 75.5817 48.5817 72 53 72H67C71.4183 72 75 75.5817 75 80V94C75 98.4183 71.4183 102 67 102H53C48.5817 102 45 98.4183 45 94V80Z" fill="#F2F0FF"/>
<path d="M85 80C85 75.5817 88.5817 72 93 72H107C111.418 72 115 75.5817 115 80V94C115 98.4183 111.418 102 107 102H93C88.5817 102 85 98.4183 85 94V80Z" fill="#F2F0FF"/>
<path d="M125 80C125 75.5817 128.582 72 133 72H147C151.418 72 155 75.5817 155 80V94C155 98.4183 151.418 102 147 102H133C128.582 102 125 98.4183 125 94V80Z" fill="#F2F0FF"/>
<path d="M165 80C165 75.5817 168.582 72 173 72H187C191.418 72 195 75.5817 195 80V94C195 98.4183 191.418 102 187 102H173C168.582 102 165 98.4183 165 94V80Z" fill="#F2F0FF"/>
<path d="M205 80C205 75.5817 208.582 72 213 72H227C231.418 72 235 75.5817 235 80V94C235 98.4183 231.418 102 227 102H213C208.582 102 205 98.4183 205 94V80Z" fill="#F2F0FF"/>
<path d="M245 80C245 75.5817 248.582 72 253 72H267C271.418 72 275 75.5817 275 80V94C275 98.4183 271.418 102 267 102H253C248.582 102 245 98.4183 245 94V80Z" fill="#F2F0FF"/>
<path d="M285 80C285 75.5817 288.582 72 293 72H307C311.418 72 315 75.5817 315 80V94C315 98.4183 311.418 102 307 102H293C288.582 102 285 98.4183 285 94V80Z" fill="#F2F0FF"/>
<path d="M325 80C325 75.5817 328.582 72 333 72H347C351.418 72 355 75.5817 355 80V94C355 98.4183 351.418 102 347 102H333C328.582 102 325 98.4183 325 94V80Z" fill="#F2F0FF"/>
<path d="M365 80C365 75.5817 368.582 72 373 72H387C391.418 72 395 75.5817 395 80V94C395 98.4183 391.418 102 387 102H373C368.582 102 365 98.4183 365 94V80Z" fill="#F2F0FF"/>
<path d="M405 80C405 75.5817 408.582 72 413 72H427C431.418 72 435 75.5817 435 80V94C435 98.4183 431.418 102 427 102H413C408.582 102 405 98.4183 405 94V80Z" fill="#F2F0FF"/>
<path d="M445 80C445 75.5817 448.582 72 453 72H467C471.418 72 475 75.5817 475 80V94C475 98.4183 471.418 102 467 102H453C448.582 102 445 98.4183 445 94V80Z" fill="#F2F0FF"/>
<path d="M490 80C490 75.5817 493.582 72 498 72H512C516.418 72 520 75.5817 520 80V94C520 98.4183 516.418 102 512 102H498C493.582 102 490 98.4183 490 94V80Z" fill="#F2F0FF"/>
<path d="M530 80C530 75.5817 533.582 72 538 72H552C556.418 72 560 75.5817 560 80V94C560 98.4183 556.418 102 552 102H538C533.582 102 530 98.4183 530 94V80Z" fill="#F2F0FF"/>
<path d="M570 80C570 75.5817 573.582 72 578 72H592C596.418 72 600 75.5817 600 80V94C600 98.4183 596.418 102 592 102H578C573.582 102 570 98.4183 570 94V80Z" fill="#F2F0FF"/>
<path d="M610 80C610 75.5817 613.582 72 618 72H632C636.418 72 640 75.5817 640 80V94C640 98.4183 636.418 102 632 102H618C613.582 102 610 98.4183 610 94V80Z" fill="#F2F0FF"/>
<path d="M650 80C650 75.5817 653.582 72 658 72H672C676.418 72 680 75.5817 680 80V94C680 98.4183 676.418 102 672 102H658C653.582 102 650 98.4183 650 94V80Z" fill="#F2F0FF"/>
<path d="M30 122C30 117.582 33.5817 114 38 114H52C56.4183 114 60 117.582 60 122V136C60 140.418 56.4183 144 52 144H38C33.5817 144 30 140.418 30 136V122Z" fill="#F2F0FF"/>
<path d="M70 122C70 117.582 73.5817 114 78 114H92C96.4183 114 100 117.582 100 122V136C100 140.418 96.4183 144 92 144H78C73.5817 144 70 140.418 70 136V122Z" fill="#F2F0FF"/>
<path d="M110 122C110 117.582 113.582 114 118 114H132C136.418 114 140 117.582 140 122V136C140 140.418 136.418 144 132 144H118C113.582 144 110 140.418 110 136V122Z" fill="#F2F0FF"/>
<path d="M150 122C150 117.582 153.582 114 158 114H172C176.418 114 180 117.582 180 122V136C180 140.418 176.418 144 172 144H158C153.582 144 150 140.418 150 136V122Z" fill="#F2F0FF"/>
<path d="M190 122C190 117.582 193.582 114 198 114H212C216.418 114 220 117.582 220 122V136C220 140.418 216.418 144 212 144H198C193.582 144 190 140.418 190 136V122Z" fill="#F2F0FF"/>
<path d="M230 122C230 117.582 233.582 114 238 114H252C256.418 114 260 117.582 260 122V136C260 140.418 256.418 144 252 144H238C233.582 144 230 140.418 230 136V122Z" fill="#F2F0FF"/>
<path d="M270 122C270 117.582 273.582 114 278 114H292C296.418 114 300 117.582 300 122V136C300 140.418 296.418 144 292 144H278C273.582 144 270 140.418 270 136V122Z" fill="#F2F0FF"/>
<path d="M310 122C310 117.582 313.582 114 318 114H332C336.418 114 340 117.582 340 122V136C340 140.418 336.418 144 332 144H318C313.582 144 310 140.418 310 136V122Z" fill="#F2F0FF"/>
<path d="M350 122C350 117.582 353.582 114 358 114H372C376.418 114 380 117.582 380 122V136C380 140.418 376.418 144 372 144H358C353.582 144 350 140.418 350 136V122Z" fill="#F2F0FF"/>
<path d="M390 122C390 117.582 393.582 114 398 114H412C416.418 114 420 117.582 420 122V136C420 140.418 416.418 144 412 144H398C393.582 144 390 140.418 390 136V122Z" fill="#F2F0FF"/>
<path d="M430 122C430 117.582 433.582 114 438 114H452C456.418 114 460 117.582 460 122V136C460 140.418 456.418 144 452 144H438C433.582 144 430 140.418 430 136V122Z" fill="#F2F0FF"/>
<path d="M470 122C470 117.582 473.582 114 478 114H492C496.418 114 500 117.582 500 122V136C500 140.418 496.418 144 492 144H478C473.582 144 470 140.418 470 136V122Z" fill="#F2F0FF"/>
<path d="M510 122C510 117.582 513.582 114 518 114H532C536.418 114 540 117.582 540 122V136C540 140.418 536.418 144 532 144H518C513.582 144 510 140.418 510 136V122Z" fill="#F2F0FF"/>
<path d="M550 122C550 117.582 553.582 114 558 114H572C576.418 114 580 117.582 580 122V136C580 140.418 576.418 144 572 144H558C553.582 144 550 140.418 550 136V122Z" fill="#F2F0FF"/>
<path d="M590 122C590 117.582 593.582 114 598 114H612C616.418 114 620 117.582 620 122V136C620 140.418 616.418 144 612 144H598C593.582 144 590 140.418 590 136V122Z" fill="#F2F0FF"/>
<path d="M60 164C60 159.582 63.5817 156 68 156H82C86.4183 156 90 159.582 90 164V178C90 182.418 86.4183 186 82 186H68C63.5817 186 60 182.418 60 178V164Z" fill="#F2F0FF"/>
<path d="M100 164C100 159.582 103.582 156 108 156H122C126.418 156 130 159.582 130 164V178C130 182.418 126.418 186 122 186H108C103.582 186 100 182.418 100 178V164Z" fill="#F2F0FF"/>
<path d="M140 164C140 159.582 143.582 156 148 156H162C166.418 156 170 159.582 170 164V178C170 182.418 166.418 186 162 186H148C143.582 186 140 182.418 140 178V164Z" fill="#F2F0FF"/>
<path d="M180 164C180 159.582 183.582 156 188 156H202C206.418 156 210 159.582 210 164V178C210 182.418 206.418 186 202 186H188C183.582 186 180 182.418 180 178V164Z" fill="#F2F0FF"/>
<path d="M220 164C220 159.582 223.582 156 228 156H242C246.418 156 250 159.582 250 164V178C250 182.418 246.418 186 242 186H228C223.582 186 220 182.418 220 178V164Z" fill="#F2F0FF"/>
<path d="M260 164C260 159.582 263.582 156 268 156H282C286.418 156 290 159.582 290 164V178C290 182.418 286.418 186 282 186H268C263.582 186 260 182.418 260 178V164Z" fill="#F2F0FF"/>
<path d="M300 164C300 159.582 303.582 156 308 156H322C326.418 156 330 159.582 330 164V178C330 182.418 326.418 186 322 186H308C303.582 186 300 182.418 300 178V164Z" fill="#F2F0FF"/>
<path d="M340 164C340 159.582 343.582 156 348 156H362C366.418 156 370 159.582 370 164V178C370 182.418 366.418 186 362 186H348C343.582 186 340 182.418 340 178V164Z" fill="#F2F0FF"/>
<path d="M380 164C380 159.582 383.582 156 388 156H402C406.418 156 410 159.582 410 164V178C410 182.418 406.418 186 402 186H388C383.582 186 380 182.418 380 178V164Z" fill="#F2F0FF"/>
<path d="M420 164C420 159.582 423.582 156 428 156H442C446.418 156 450 159.582 450 164V178C450 182.418 446.418 186 442 186H428C423.582 186 420 182.418 420 178V164Z" fill="#F2F0FF"/>
<path d="M460 164C460 159.582 463.582 156 468 156H482C486.418 156 490 159.582 490 164V178C490 182.418 486.418 186 482 186H468C463.582 186 460 182.418 460 178V164Z" fill="#F2F0FF"/>
<path d="M30 206C30 201.582 33.5817 198 38 198H52C56.4183 198 60 201.582 60 206V220C60 224.418 56.4183 228 52 228H38C33.5817 228 30 224.418 30 220V206Z" fill="#F2F0FF"/>
<path d="M70 206C70 201.582 73.5817 198 78 198H92C96.4183 198 100 201.582 100 206V220C100 224.418 96.4183 228 92 228H78C73.5817 228 70 224.418 70 220V206Z" fill="#F2F0FF"/>
<path d="M110 206C110 201.582 113.582 198 118 198H132C136.418 198 140 201.582 140 206V220C140 224.418 136.418 228 132 228H118C113.582 228 110 224.418 110 220V206Z" fill="#F2F0FF"/>
<path d="M150 206C150 201.582 153.582 198 158 198H172C176.418 198 180 201.582 180 206V220C180 224.418 176.418 228 172 228H158C153.582 228 150 224.418 150 220V206Z" fill="#F2F0FF"/>
<path d="M190 206C190 201.582 193.582 198 198 198H212C216.418 198 220 201.582 220 206V220C220 224.418 216.418 228 212 228H198C193.582 228 190 224.418 190 220V206Z" fill="#F2F0FF"/>
<path d="M230 206C230 201.582 233.582 198 238 198H252C256.418 198 260 201.582 260 206V220C260 224.418 256.418 228 252 228H238C233.582 228 230 224.418 230 220V206Z" fill="#F2F0FF"/>
<path d="M270 206C270 201.582 273.582 198 278 198H292C296.418 198 300 201.582 300 206V220C300 224.418 296.418 228 292 228H278C273.582 228 270 224.418 270 220V206Z" fill="#F2F0FF"/>
<path d="M310 206C310 201.582 313.582 198 318 198H332C336.418 198 340 201.582 340 206V220C340 224.418 336.418 228 332 228H318C313.582 228 310 224.418 310 220V206Z" fill="#F2F0FF"/>
<path d="M350 206C350 201.582 353.582 198 358 198H372C376.418 198 380 201.582 380 206V220C380 224.418 376.418 228 372 228H358C353.582 228 350 224.418 350 220V206Z" fill="#F2F0FF"/>
<path d="M390 206C390 201.582 393.582 198 398 198H412C416.418 198 420 201.582 420 206V220C420 224.418 416.418 228 412 228H398C393.582 228 390 224.418 390 220V206Z" fill="#F2F0FF"/>
<path d="M430 206C430 201.582 433.582 198 438 198H452C456.418 198 460 201.582 460 206V220C460 224.418 456.418 228 452 228H438C433.582 228 430 224.418 430 220V206Z" fill="#F2F0FF"/>
<path d="M470 206C470 201.582 473.582 198 478 198H492C496.418 198 500 201.582 500 206V220C500 224.418 496.418 228 492 228H478C473.582 228 470 224.418 470 220V206Z" fill="#F2F0FF"/>
<path d="M510 206C510 201.582 513.582 198 518 198H532C536.418 198 540 201.582 540 206V220C540 224.418 536.418 228 532 228H518C513.582 228 510 224.418 510 220V206Z" fill="#F2F0FF"/>
<path d="M550 206C550 201.582 553.582 198 558 198H572C576.418 198 580 201.582 580 206V220C580 224.418 576.418 228 572 228H558C553.582 228 550 224.418 550 220V206Z" fill="#F2F0FF"/>
<path d="M505 248C505 243.582 508.582 240 513 240H527C531.418 240 535 243.582 535 248V262C535 266.418 531.418 270 527 270H513C508.582 270 505 266.418 505 262V248Z" fill="#F2F0FF"/>
<path d="M545 248C545 243.582 548.582 240 553 240H567C571.418 240 575 243.582 575 248V262C575 266.418 571.418 270 567 270H553C548.582 270 545 266.418 545 262V248Z" fill="#F2F0FF"/>
<path d="M585 248C585 243.582 588.582 240 593 240H607C611.418 240 615 243.582 615 248V262C615 266.418 611.418 270 607 270H593C588.582 270 585 266.418 585 262V248Z" fill="#F2F0FF"/>
<path d="M60 248C60 243.582 63.5817 240 68 240H82C86.4183 240 90 243.582 90 248V262C90 266.418 86.4183 270 82 270H68C63.5817 270 60 266.418 60 262V248Z" fill="#F2F0FF"/>
<path d="M100 248C100 243.582 103.582 240 108 240H122C126.418 240 130 243.582 130 248V262C130 266.418 126.418 270 122 270H108C103.582 270 100 266.418 100 262V248Z" fill="#F2F0FF"/>
<path d="M140 248C140 243.582 143.582 240 148 240H162C166.418 240 170 243.582 170 248V262C170 266.418 166.418 270 162 270H148C143.582 270 140 266.418 140 262V248Z" fill="#F2F0FF"/>
<path d="M180 248C180 243.582 183.582 240 188 240H202C206.418 240 210 243.582 210 248V262C210 266.418 206.418 270 202 270H188C183.582 270 180 266.418 180 262V248Z" fill="#F2F0FF"/>
<path d="M220 248C220 243.582 223.582 240 228 240H242C246.418 240 250 243.582 250 248V262C250 266.418 246.418 270 242 270H228C223.582 270 220 266.418 220 262V248Z" fill="#F2F0FF"/>
<path d="M260 248C260 243.582 263.582 240 268 240H282C286.418 240 290 243.582 290 248V262C290 266.418 286.418 270 282 270H268C263.582 270 260 266.418 260 262V248Z" fill="#F2F0FF"/>
<path d="M300 248C300 243.582 303.582 240 308 240H322C326.418 240 330 243.582 330 248V262C330 266.418 326.418 270 322 270H308C303.582 270 300 266.418 300 262V248Z" fill="#F2F0FF"/>
<path d="M340 248C340 243.582 343.582 240 348 240H362C366.418 240 370 243.582 370 248V262C370 266.418 366.418 270 362 270H348C343.582 270 340 266.418 340 262V248Z" fill="#F2F0FF"/>
<path d="M380 248C380 243.582 383.582 240 388 240H402C406.418 240 410 243.582 410 248V262C410 266.418 406.418 270 402 270H388C383.582 270 380 266.418 380 262V248Z" fill="#F2F0FF"/>
<path d="M420 248C420 243.582 423.582 240 428 240H442C446.418 240 450 243.582 450 248V262C450 266.418 446.418 270 442 270H428C423.582 270 420 266.418 420 262V248Z" fill="#F2F0FF"/>
<path d="M460 248C460 243.582 463.582 240 468 240H482C486.418 240 490 243.582 490 248V262C490 266.418 486.418 270 482 270H468C463.582 270 460 266.418 460 262V248Z" fill="#F2F0FF"/>
<path d="M470 290C470 285.582 473.582 282 478 282H492C496.418 282 500 285.582 500 290V304C500 308.418 496.418 312 492 312H478C473.582 312 470 308.418 470 304V290Z" fill="#F2F0FF"/>
<path d="M515 290C515 285.582 518.582 282 523 282H537C541.418 282 545 285.582 545 290V304C545 308.418 541.418 312 537 312H523C518.582 312 515 308.418 515 304V290Z" fill="#F2F0FF"/>
<path d="M25 290C25 285.582 28.5817 282 33 282H47C51.4183 282 55 285.582 55 290V304C55 308.418 51.4183 312 47 312H33C28.5817 312 25 308.418 25 304V290Z" fill="#F2F0FF"/>
<path d="M65 290C65 285.582 68.5817 282 73 282H87C91.4183 282 95 285.582 95 290V304C95 308.418 91.4183 312 87 312H73C68.5817 312 65 308.418 65 304V290Z" fill="#F2F0FF"/>
<path d="M105 290C105 285.582 108.582 282 113 282H127C131.418 282 135 285.582 135 290V304C135 308.418 131.418 312 127 312H113C108.582 312 105 308.418 105 304V290Z" fill="#F2F0FF"/>
<path d="M145 290C145 285.582 148.582 282 153 282H167C171.418 282 175 285.582 175 290V304C175 308.418 171.418 312 167 312H153C148.582 312 145 308.418 145 304V290Z" fill="#F2F0FF"/>
<path d="M185 290C185 285.582 188.582 282 193 282H207C211.418 282 215 285.582 215 290V304C215 308.418 211.418 312 207 312H193C188.582 312 185 308.418 185 304V290Z" fill="#F2F0FF"/>
<path d="M225 290C225 285.582 228.582 282 233 282H247C251.418 282 255 285.582 255 290V304C255 308.418 251.418 312 247 312H233C228.582 312 225 308.418 225 304V290Z" fill="#F2F0FF"/>
<path d="M265 290C265 285.582 268.582 282 273 282H287C291.418 282 295 285.582 295 290V304C295 308.418 291.418 312 287 312H273C268.582 312 265 308.418 265 304V290Z" fill="#F2F0FF"/>
<path d="M305 290C305 285.582 308.582 282 313 282H327C331.418 282 335 285.582 335 290V304C335 308.418 331.418 312 327 312H313C308.582 312 305 308.418 305 304V290Z" fill="#F2F0FF"/>
<path d="M345 290C345 285.582 348.582 282 353 282H367C371.418 282 375 285.582 375 290V304C375 308.418 371.418 312 367 312H353C348.582 312 345 308.418 345 304V290Z" fill="#F2F0FF"/>
<path d="M385 290C385 285.582 388.582 282 393 282H407C411.418 282 415 285.582 415 290V304C415 308.418 411.418 312 407 312H393C388.582 312 385 308.418 385 304V290Z" fill="#F2F0FF"/>
<path d="M425 290C425 285.582 428.582 282 433 282H447C451.418 282 455 285.582 455 290V304C455 308.418 451.418 312 447 312H433C428.582 312 425 308.418 425 304V290Z" fill="#F2F0FF"/>
<path d="M40 332C40 327.582 43.5817 324 48 324H62C66.4183 324 70 327.582 70 332V346C70 350.418 66.4183 354 62 354H48C43.5817 354 40 350.418 40 346V332Z" fill="#F2F0FF"/>
<path d="M80 332C80 327.582 83.5817 324 88 324H102C106.418 324 110 327.582 110 332V346C110 350.418 106.418 354 102 354H88C83.5817 354 80 350.418 80 346V332Z" fill="#F2F0FF"/>
<path d="M120 332C120 327.582 123.582 324 128 324H142C146.418 324 150 327.582 150 332V346C150 350.418 146.418 354 142 354H128C123.582 354 120 350.418 120 346V332Z" fill="#F2F0FF"/>
<path d="M160 332C160 327.582 163.582 324 168 324H182C186.418 324 190 327.582 190 332V346C190 350.418 186.418 354 182 354H168C163.582 354 160 350.418 160 346V332Z" fill="#F2F0FF"/>
<path d="M200 332C200 327.582 203.582 324 208 324H222C226.418 324 230 327.582 230 332V346C230 350.418 226.418 354 222 354H208C203.582 354 200 350.418 200 346V332Z" fill="#F2F0FF"/>
<path d="M240 332C240 327.582 243.582 324 248 324H262C266.418 324 270 327.582 270 332V346C270 350.418 266.418 354 262 354H248C243.582 354 240 350.418 240 346V332Z" fill="#F2F0FF"/>
<path d="M280 332C280 327.582 283.582 324 288 324H302C306.418 324 310 327.582 310 332V346C310 350.418 306.418 354 302 354H288C283.582 354 280 350.418 280 346V332Z" fill="#F2F0FF"/>
<path d="M320 332C320 327.582 323.582 324 328 324H342C346.418 324 350 327.582 350 332V346C350 350.418 346.418 354 342 354H328C323.582 354 320 350.418 320 346V332Z" fill="#F2F0FF"/>
<path d="M360 332C360 327.582 363.582 324 368 324H382C386.418 324 390 327.582 390 332V346C390 350.418 386.418 354 382 354H368C363.582 354 360 350.418 360 346V332Z" fill="#F2F0FF"/>
<path d="M400 332C400 327.582 403.582 324 408 324H422C426.418 324 430 327.582 430 332V346C430 350.418 426.418 354 422 354H408C403.582 354 400 350.418 400 346V332Z" fill="#F2F0FF"/>
<path d="M60 374C60 369.582 63.5817 366 68 366H82C86.4183 366 90 369.582 90 374V388C90 392.418 86.4183 396 82 396H68C63.5817 396 60 392.418 60 388V374Z" fill="#F2F0FF"/>
<path d="M100 374C100 369.582 103.582 366 108 366H122C126.418 366 130 369.582 130 374V388C130 392.418 126.418 396 122 396H108C103.582 396 100 392.418 100 388V374Z" fill="#F2F0FF"/>
<path d="M140 374C140 369.582 143.582 366 148 366H162C166.418 366 170 369.582 170 374V388C170 392.418 166.418 396 162 396H148C143.582 396 140 392.418 140 388V374Z" fill="#F2F0FF"/>
<path d="M180 374C180 369.582 183.582 366 188 366H202C206.418 366 210 369.582 210 374V388C210 392.418 206.418 396 202 396H188C183.582 396 180 392.418 180 388V374Z" fill="#F2F0FF"/>
<path d="M220 374C220 369.582 223.582 366 228 366H242C246.418 366 250 369.582 250 374V388C250 392.418 246.418 396 242 396H228C223.582 396 220 392.418 220 388V374Z" fill="#F2F0FF"/>
<path d="M260 374C260 369.582 263.582 366 268 366H282C286.418 366 290 369.582 290 374V388C290 392.418 286.418 396 282 396H268C263.582 396 260 392.418 260 388V374Z" fill="#F2F0FF"/>
<path d="M300 374C300 369.582 303.582 366 308 366H322C326.418 366 330 369.582 330 374V388C330 392.418 326.418 396 322 396H308C303.582 396 300 392.418 300 388V374Z" fill="#F2F0FF"/>
<path d="M340 374C340 369.582 343.582 366 348 366H362C366.418 366 370 369.582 370 374V388C370 392.418 366.418 396 362 396H348C343.582 396 340 392.418 340 388V374Z" fill="#F2F0FF"/>
<path d="M40 416C40 411.582 43.5817 408 48 408H62C66.4183 408 70 411.582 70 416V430C70 434.418 66.4183 438 62 438H48C43.5817 438 40 434.418 40 430V416Z" fill="#F2F0FF"/>
<path d="M80 416C80 411.582 83.5817 408 88 408H102C106.418 408 110 411.582 110 416V430C110 434.418 106.418 438 102 438H88C83.5817 438 80 434.418 80 430V416Z" fill="#F2F0FF"/>
<path d="M120 416C120 411.582 123.582 408 128 408H142C146.418 408 150 411.582 150 416V430C150 434.418 146.418 438 142 438H128C123.582 438 120 434.418 120 430V416Z" fill="#F2F0FF"/>
<path d="M160 416C160 411.582 163.582 408 168 408H182C186.418 408 190 411.582 190 416V430C190 434.418 186.418 438 182 438H168C163.582 438 160 434.418 160 430V416Z" fill="#F2F0FF"/>
<path d="M200 416C200 411.582 203.582 408 208 408H222C226.418 408 230 411.582 230 416V430C230 434.418 226.418 438 222 438H208C203.582 438 200 434.418 200 430V416Z" fill="#F2F0FF"/>
<path d="M240 416C240 411.582 243.582 408 248 408H262C266.418 408 270 411.582 270 416V430C270 434.418 266.418 438 262 438H248C243.582 438 240 434.418 240 430V416Z" fill="#F2F0FF"/>
<path d="M60 458C60 453.582 63.5817 450 68 450H82C86.4183 450 90 453.582 90 458V472C90 476.418 86.4183 480 82 480H68C63.5817 480 60 476.418 60 472V458Z" fill="#F2F0FF"/>
<path d="M100 458C100 453.582 103.582 450 108 450H122C126.418 450 130 453.582 130 458V472C130 476.418 126.418 480 122 480H108C103.582 480 100 476.418 100 472V458Z" fill="#F2F0FF"/>
<path d="M140 458C140 453.582 143.582 450 148 450H162C166.418 450 170 453.582 170 458V472C170 476.418 166.418 480 162 480H148C143.582 480 140 476.418 140 472V458Z" fill="#F2F0FF"/>
<path d="M180 458C180 453.582 183.582 450 188 450H202C206.418 450 210 453.582 210 458V472C210 476.418 206.418 480 202 480H188C183.582 480 180 476.418 180 472V458Z" fill="#F2F0FF"/>
<path d="M220 458C220 453.582 223.582 450 228 450H242C246.418 450 250 453.582 250 458V472C250 476.418 246.418 480 242 480H228C223.582 480 220 476.418 220 472V458Z" fill="#F2F0FF"/>
<path d="M43 500C43 495.582 46.5817 492 51 492H65C69.4183 492 73 495.582 73 500V514C73 518.418 69.4183 522 65 522H51C46.5817 522 43 518.418 43 514V500Z" fill="#F2F0FF"/>
<path d="M83 500C83 495.582 86.5817 492 91 492H105C109.418 492 113 495.582 113 500V514C113 518.418 109.418 522 105 522H91C86.5817 522 83 518.418 83 514V500Z" fill="#F2F0FF"/>
<path d="M123 500C123 495.582 126.582 492 131 492H145C149.418 492 153 495.582 153 500V514C153 518.418 149.418 522 145 522H131C126.582 522 123 518.418 123 514V500Z" fill="#F2F0FF"/>
<path d="M163 500C163 495.582 166.582 492 171 492H185C189.418 492 193 495.582 193 500V514C193 518.418 189.418 522 185 522H171C166.582 522 163 518.418 163 514V500Z" fill="#F2F0FF"/>
<path d="M205 499C205 494.582 208.582 491 213 491H227C231.418 491 235 494.582 235 499V513C235 517.418 231.418 521 227 521H213C208.582 521 205 517.418 205 513V499Z" fill="#F2F0FF"/>
<path d="M28 542C28 537.582 31.5817 534 36 534H50C54.4183 534 58 537.582 58 542V556C58 560.418 54.4183 564 50 564H36C31.5817 564 28 560.418 28 556V542Z" fill="#F2F0FF"/>
<path d="M68 542C68 537.582 71.5817 534 76 534H90C94.4183 534 98 537.582 98 542V556C98 560.418 94.4183 564 90 564H76C71.5817 564 68 560.418 68 556V542Z" fill="#F2F0FF"/>
<path d="M108 542C108 537.582 111.582 534 116 534H130C134.418 534 138 537.582 138 542V556C138 560.418 134.418 564 130 564H116C111.582 564 108 560.418 108 556V542Z" fill="#F2F0FF"/>
<path d="M43 584C43 579.582 46.5817 576 51 576H65C69.4183 576 73 579.582 73 584V598C73 602.418 69.4183 606 65 606H51C46.5817 606 43 602.418 43 598V584Z" fill="#F2F0FF"/>
<path d="M1450 920.001C1450 915.582 1453.58 912 1458 912L1472 912C1476.42 912 1480 915.581 1480 920L1480 934C1480 938.418 1476.42 942 1472 942L1458 942C1453.58 942 1450 938.419 1450 934.001L1450 920.001Z" fill="#F2F0FF"/>
<path d="M1410 920.002C1410 915.583 1413.58 912.002 1418 912.002L1432 912.001C1436.42 912.001 1440 915.583 1440 920.001L1440 934.001C1440 938.419 1436.42 942.001 1432 942.001L1418 942.002C1413.58 942.002 1410 938.42 1410 934.002L1410 920.002Z" fill="#F2F0FF"/>
<path d="M1370 920.003C1370 915.585 1373.58 912.003 1378 912.003L1392 912.002C1396.42 912.002 1400 915.584 1400 920.002L1400 934.002C1400 938.42 1396.42 942.002 1392 942.002L1378 942.003C1373.58 942.003 1370 938.421 1370 934.003L1370 920.003Z" fill="#F2F0FF"/>
<path d="M1330 920.004C1330 915.586 1333.58 912.004 1338 912.004L1352 912.004C1356.42 912.003 1360 915.585 1360 920.003L1360 934.003C1360 938.422 1356.42 942.003 1352 942.004L1338 942.004C1333.58 942.004 1330 938.423 1330 934.004L1330 920.004Z" fill="#F2F0FF"/>
<path d="M1290 920.006C1290 915.587 1293.58 912.005 1298 912.005L1312 912.005C1316.42 912.005 1320 915.586 1320 920.005L1320 934.005C1320 938.423 1316.42 942.005 1312 942.005L1298 942.005C1293.58 942.005 1290 938.424 1290 934.006L1290 920.006Z" fill="#F2F0FF"/>
<path d="M1250 920.007C1250 915.588 1253.58 912.007 1258 912.007L1272 912.006C1276.42 912.006 1280 915.588 1280 920.006L1280 934.006C1280 938.424 1276.42 942.006 1272 942.006L1258 942.007C1253.58 942.007 1250 938.425 1250 934.007L1250 920.007Z" fill="#F2F0FF"/>
<path d="M1210 920.008C1210 915.59 1213.58 912.008 1218 912.008L1232 912.007C1236.42 912.007 1240 915.589 1240 920.007L1240 934.007C1240 938.425 1236.42 942.007 1232 942.007L1218 942.008C1213.58 942.008 1210 938.426 1210 934.008L1210 920.008Z" fill="#F2F0FF"/>
<path d="M1170 920.009C1170 915.591 1173.58 912.009 1178 912.009L1192 912.009C1196.42 912.008 1200 915.59 1200 920.008L1200 934.008C1200 938.427 1196.42 942.008 1192 942.009L1178 942.009C1173.58 942.009 1170 938.428 1170 934.009L1170 920.009Z" fill="#F2F0FF"/>
<path d="M1130 920.011C1130 915.592 1133.58 912.01 1138 912.01L1152 912.01C1156.42 912.01 1160 915.591 1160 920.01L1160 934.01C1160 938.428 1156.42 942.01 1152 942.01L1138 942.01C1133.58 942.01 1130 938.429 1130 934.011L1130 920.011Z" fill="#F2F0FF"/>
<path d="M1090 920.012C1090 915.594 1093.58 912.012 1098 912.012L1112 912.011C1116.42 912.011 1120 915.593 1120 920.011L1120 934.011C1120 938.429 1116.42 942.011 1112 942.011L1098 942.012C1093.58 942.012 1090 938.43 1090 934.012L1090 920.012Z" fill="#F2F0FF"/>
<path d="M1050 920.013C1050 915.595 1053.58 912.013 1058 912.013L1072 912.012C1076.42 912.012 1080 915.594 1080 920.012L1080 934.012C1080 938.43 1076.42 942.012 1072 942.012L1058 942.013C1053.58 942.013 1050 938.431 1050 934.013L1050 920.013Z" fill="#F2F0FF"/>
<path d="M1010 920.014C1010 915.596 1013.58 912.014 1018 912.014L1032 912.014C1036.42 912.013 1040 915.595 1040 920.013L1040 934.013C1040 938.432 1036.42 942.013 1032 942.014L1018 942.014C1013.58 942.014 1010 938.433 1010 934.014L1010 920.014Z" fill="#F2F0FF"/>
<path d="M970 920.016C970 915.597 973.582 912.016 978 912.015L992 912.015C996.418 912.015 1000 915.596 1000 920.015L1000 934.015C1000 938.433 996.419 942.015 992.001 942.015L978.001 942.015C973.583 942.016 970.001 938.434 970.001 934.016L970 920.016Z" fill="#F2F0FF"/>
<path d="M930 920.017C930 915.599 933.582 912.017 938 912.017L952 912.016C956.418 912.016 960 915.598 960 920.016L960.001 934.016C960.001 938.434 956.419 942.016 952.001 942.016L938.001 942.017C933.583 942.017 930.001 938.435 930.001 934.017L930 920.017Z" fill="#F2F0FF"/>
<path d="M890 920.018C890 915.6 893.582 912.018 898 912.018L912 912.017C916.418 912.017 920 915.599 920 920.017L920.001 934.017C920.001 938.435 916.419 942.017 912.001 942.017L898.001 942.018C893.583 942.018 890.001 938.436 890.001 934.018L890 920.018Z" fill="#F2F0FF"/>
<path d="M850 920.019C850 915.601 853.582 912.019 858 912.019L872 912.019C876.418 912.019 880 915.6 880 920.018L880.001 934.018C880.001 938.437 876.419 942.019 872.001 942.019L858.001 942.019C853.583 942.019 850.001 938.438 850.001 934.019L850 920.019Z" fill="#F2F0FF"/>
<path d="M810 920.021C810 915.602 813.582 912.021 818 912.02L832 912.02C836.418 912.02 840 915.601 840 920.02L840.001 934.02C840.001 938.438 836.419 942.02 832.001 942.02L818.001 942.02C813.583 942.021 810.001 938.439 810.001 934.021L810 920.021Z" fill="#F2F0FF"/>
<path d="M770 920.022C770 915.604 773.582 912.022 778 912.022L792 912.021C796.418 912.021 800 915.603 800 920.021L800.001 934.021C800.001 938.439 796.419 942.021 792.001 942.021L778.001 942.022C773.583 942.022 770.001 938.44 770.001 934.022L770 920.022Z" fill="#F2F0FF"/>
<path d="M1435 878.001C1435 873.583 1438.58 870.001 1443 870.001L1457 870C1461.42 870 1465 873.582 1465 878L1465 892C1465 896.418 1461.42 900 1457 900L1443 900.001C1438.58 900.001 1435 896.419 1435 892.001L1435 878.001Z" fill="#F2F0FF"/>
<path d="M1395 878.002C1395 873.584 1398.58 870.002 1403 870.002L1417 870.002C1421.42 870.001 1425 873.583 1425 878.001L1425 892.001C1425 896.42 1421.42 900.001 1417 900.002L1403 900.002C1398.58 900.002 1395 896.421 1395 892.002L1395 878.002Z" fill="#F2F0FF"/>
<path d="M1355 878.003C1355 873.585 1358.58 870.003 1363 870.003L1377 870.003C1381.42 870.003 1385 873.584 1385 878.003L1385 892.003C1385 896.421 1381.42 900.003 1377 900.003L1363 900.003C1358.58 900.003 1355 896.422 1355 892.003L1355 878.003Z" fill="#F2F0FF"/>
<path d="M1315 878.005C1315 873.586 1318.58 870.005 1323 870.004L1337 870.004C1341.42 870.004 1345 873.585 1345 878.004L1345 892.004C1345 896.422 1341.42 900.004 1337 900.004L1323 900.004C1318.58 900.005 1315 896.423 1315 892.005L1315 878.005Z" fill="#F2F0FF"/>
<path d="M1275 878.006C1275 873.588 1278.58 870.006 1283 870.006L1297 870.005C1301.42 870.005 1305 873.587 1305 878.005L1305 892.005C1305 896.423 1301.42 900.005 1297 900.005L1283 900.006C1278.58 900.006 1275 896.424 1275 892.006L1275 878.006Z" fill="#F2F0FF"/>
<path d="M1235 878.007C1235 873.589 1238.58 870.007 1243 870.007L1257 870.007C1261.42 870.006 1265 873.588 1265 878.006L1265 892.006C1265 896.425 1261.42 900.006 1257 900.007L1243 900.007C1238.58 900.007 1235 896.426 1235 892.007L1235 878.007Z" fill="#F2F0FF"/>
<path d="M1195 878.009C1195 873.59 1198.58 870.008 1203 870.008L1217 870.008C1221.42 870.008 1225 873.589 1225 878.008L1225 892.008C1225 896.426 1221.42 900.008 1217 900.008L1203 900.008C1198.58 900.008 1195 896.427 1195 892.009L1195 878.009Z" fill="#F2F0FF"/>
<path d="M1155 878.01C1155 873.591 1158.58 870.01 1163 870.01L1177 870.009C1181.42 870.009 1185 873.591 1185 878.009L1185 892.009C1185 896.427 1181.42 900.009 1177 900.009L1163 900.01C1158.58 900.01 1155 896.428 1155 892.01L1155 878.01Z" fill="#F2F0FF"/>
<path d="M1115 878.011C1115 873.593 1118.58 870.011 1123 870.011L1137 870.01C1141.42 870.01 1145 873.592 1145 878.01L1145 892.01C1145 896.428 1141.42 900.01 1137 900.01L1123 900.011C1118.58 900.011 1115 896.429 1115 892.011L1115 878.011Z" fill="#F2F0FF"/>
<path d="M1075 878.012C1075 873.594 1078.58 870.012 1083 870.012L1097 870.012C1101.42 870.011 1105 873.593 1105 878.011L1105 892.011C1105 896.43 1101.42 900.011 1097 900.012L1083 900.012C1078.58 900.012 1075 896.431 1075 892.012L1075 878.012Z" fill="#F2F0FF"/>
<path d="M1035 878.014C1035 873.595 1038.58 870.013 1043 870.013L1057 870.013C1061.42 870.013 1065 873.594 1065 878.013L1065 892.013C1065 896.431 1061.42 900.013 1057 900.013L1043 900.013C1038.58 900.013 1035 896.432 1035 892.014L1035 878.014Z" fill="#F2F0FF"/>
<path d="M989.999 878.015C989.999 873.597 993.58 870.015 997.999 870.015L1012 870.014C1016.42 870.014 1020 873.596 1020 878.014L1020 892.014C1020 896.432 1016.42 900.014 1012 900.014L998 900.015C993.581 900.015 989.999 896.433 989.999 892.015L989.999 878.015Z" fill="#F2F0FF"/>
<path d="M949.999 878.016C949.999 873.598 953.58 870.016 957.999 870.016L971.999 870.016C976.417 870.015 979.999 873.597 979.999 878.015L979.999 892.015C979.999 896.434 976.418 900.015 972 900.016L958 900.016C953.581 900.016 949.999 896.435 949.999 892.016L949.999 878.016Z" fill="#F2F0FF"/>
<path d="M909.999 878.017C909.999 873.599 913.58 870.017 917.999 870.017L931.999 870.017C936.417 870.017 939.999 873.598 939.999 878.017L939.999 892.017C939.999 896.435 936.418 900.017 932 900.017L918 900.017C913.581 900.017 909.999 896.436 909.999 892.017L909.999 878.017Z" fill="#F2F0FF"/>
<path d="M869.999 878.019C869.999 873.6 873.58 870.019 877.999 870.018L891.999 870.018C896.417 870.018 899.999 873.6 899.999 878.018L899.999 892.018C899.999 896.436 896.418 900.018 892 900.018L878 900.018C873.581 900.019 869.999 896.437 869.999 892.019L869.999 878.019Z" fill="#F2F0FF"/>
<path d="M829.999 878.02C829.999 873.602 833.58 870.02 837.999 870.02L851.999 870.019C856.417 870.019 859.999 873.601 859.999 878.019L859.999 892.019C859.999 896.437 856.418 900.019 852 900.019L838 900.02C833.581 900.02 829.999 896.438 829.999 892.02L829.999 878.02Z" fill="#F2F0FF"/>
<path d="M1450 836C1450 831.582 1453.58 828 1458 828L1472 828C1476.42 828 1480 831.581 1480 836L1480 850C1480 854.418 1476.42 858 1472 858L1458 858C1453.58 858 1450 854.419 1450 850L1450 836Z" fill="#F2F0FF"/>
<path d="M1410 836.002C1410 831.584 1413.58 828.002 1418 828.002L1432 828.001C1436.42 828.001 1440 831.583 1440 836.001L1440 850.001C1440 854.419 1436.42 858.001 1432 858.001L1418 858.002C1413.58 858.002 1410 854.42 1410 850.002L1410 836.002Z" fill="#F2F0FF"/>
<path d="M1370 836.003C1370 831.585 1373.58 828.003 1378 828.003L1392 828.002C1396.42 828.002 1400 831.584 1400 836.002L1400 850.002C1400 854.42 1396.42 858.002 1392 858.002L1378 858.003C1373.58 858.003 1370 854.421 1370 850.003L1370 836.003Z" fill="#F2F0FF"/>
<path d="M1330 836.004C1330 831.586 1333.58 828.004 1338 828.004L1352 828.004C1356.42 828.003 1360 831.585 1360 836.003L1360 850.003C1360 854.422 1356.42 858.003 1352 858.004L1338 858.004C1333.58 858.004 1330 854.423 1330 850.004L1330 836.004Z" fill="#F2F0FF"/>
<path d="M1290 836.006C1290 831.587 1293.58 828.005 1298 828.005L1312 828.005C1316.42 828.005 1320 831.586 1320 836.005L1320 850.005C1320 854.423 1316.42 858.005 1312 858.005L1298 858.005C1293.58 858.005 1290 854.424 1290 850.006L1290 836.006Z" fill="#F2F0FF"/>
<path d="M1250 836.007C1250 831.589 1253.58 828.007 1258 828.007L1272 828.006C1276.42 828.006 1280 831.588 1280 836.006L1280 850.006C1280 854.424 1276.42 858.006 1272 858.006L1258 858.007C1253.58 858.007 1250 854.425 1250 850.007L1250 836.007Z" fill="#F2F0FF"/>
<path d="M1210 836.008C1210 831.59 1213.58 828.008 1218 828.008L1232 828.007C1236.42 828.007 1240 831.589 1240 836.007L1240 850.007C1240 854.425 1236.42 858.007 1232 858.007L1218 858.008C1213.58 858.008 1210 854.426 1210 850.008L1210 836.008Z" fill="#F2F0FF"/>
<path d="M1170 836.009C1170 831.591 1173.58 828.009 1178 828.009L1192 828.009C1196.42 828.008 1200 831.59 1200 836.008L1200 850.008C1200 854.427 1196.42 858.008 1192 858.009L1178 858.009C1173.58 858.009 1170 854.428 1170 850.009L1170 836.009Z" fill="#F2F0FF"/>
<path d="M1130 836.011C1130 831.592 1133.58 828.01 1138 828.01L1152 828.01C1156.42 828.01 1160 831.591 1160 836.01L1160 850.01C1160 854.428 1156.42 858.01 1152 858.01L1138 858.01C1133.58 858.01 1130 854.429 1130 850.011L1130 836.011Z" fill="#F2F0FF"/>
<path d="M1090 836.012C1090 831.594 1093.58 828.012 1098 828.012L1112 828.011C1116.42 828.011 1120 831.593 1120 836.011L1120 850.011C1120 854.429 1116.42 858.011 1112 858.011L1098 858.012C1093.58 858.012 1090 854.43 1090 850.012L1090 836.012Z" fill="#F2F0FF"/>
<path d="M1050 836.013C1050 831.595 1053.58 828.013 1058 828.013L1072 828.012C1076.42 828.012 1080 831.594 1080 836.012L1080 850.012C1080 854.43 1076.42 858.012 1072 858.012L1058 858.013C1053.58 858.013 1050 854.431 1050 850.013L1050 836.013Z" fill="#F2F0FF"/>
<path d="M1010 836.014C1010 831.596 1013.58 828.014 1018 828.014L1032 828.014C1036.42 828.014 1040 831.595 1040 836.013L1040 850.013C1040 854.432 1036.42 858.014 1032 858.014L1018 858.014C1013.58 858.014 1010 854.433 1010 850.014L1010 836.014Z" fill="#F2F0FF"/>
<path d="M969.998 836.016C969.997 831.597 973.579 828.015 977.997 828.015L991.997 828.015C996.416 828.015 999.997 831.596 999.998 836.015L999.998 850.015C999.998 854.433 996.417 858.015 991.998 858.015L977.998 858.015C973.58 858.015 969.998 854.434 969.998 850.016L969.998 836.016Z" fill="#F2F0FF"/>
<path d="M929.998 836.017C929.998 831.599 933.579 828.017 937.997 828.017L951.997 828.016C956.416 828.016 959.998 831.598 959.998 836.016L959.998 850.016C959.998 854.434 956.417 858.016 951.998 858.016L937.998 858.017C933.58 858.017 929.998 854.435 929.998 850.017L929.998 836.017Z" fill="#F2F0FF"/>
<path d="M889.998 836.018C889.998 831.6 893.579 828.018 897.997 828.018L911.997 828.017C916.416 828.017 919.998 831.599 919.998 836.017L919.998 850.017C919.998 854.435 916.417 858.017 911.998 858.017L897.998 858.018C893.58 858.018 889.998 854.436 889.998 850.018L889.998 836.018Z" fill="#F2F0FF"/>
<path d="M1420 794.001C1420 789.583 1423.58 786.001 1428 786.001L1442 786.001C1446.41 786.001 1450 789.582 1450 794L1450 808C1450 812.419 1446.42 816.001 1442 816.001L1428 816.001C1423.58 816.001 1420 812.42 1420 808.001L1420 794.001Z" fill="#F2F0FF"/>
<path d="M1380 794.003C1380 789.584 1383.58 786.003 1388 786.002L1402 786.002C1406.41 786.002 1410 789.584 1410 794.002L1410 808.002C1410 812.42 1406.42 816.002 1402 816.002L1388 816.002C1383.58 816.003 1380 812.421 1380 808.003L1380 794.003Z" fill="#F2F0FF"/>
<path d="M1340 794.004C1340 789.586 1343.58 786.004 1348 786.004L1362 786.003C1366.41 786.003 1370 789.585 1370 794.003L1370 808.003C1370 812.421 1366.42 816.003 1362 816.003L1348 816.004C1343.58 816.004 1340 812.422 1340 808.004L1340 794.004Z" fill="#F2F0FF"/>
<path d="M1300 794.005C1300 789.587 1303.58 786.005 1308 786.005L1322 786.005C1326.41 786.004 1330 789.586 1330 794.004L1330 808.004C1330 812.423 1326.42 816.004 1322 816.005L1308 816.005C1303.58 816.005 1300 812.424 1300 808.005L1300 794.005Z" fill="#F2F0FF"/>
<path d="M1260 794.006C1260 789.588 1263.58 786.006 1268 786.006L1282 786.006C1286.41 786.006 1290 789.587 1290 794.006L1290 808.006C1290 812.424 1286.42 816.006 1282 816.006L1268 816.006C1263.58 816.006 1260 812.425 1260 808.006L1260 794.006Z" fill="#F2F0FF"/>
<path d="M1220 794.008C1220 789.589 1223.58 786.008 1228 786.008L1242 786.007C1246.41 786.007 1250 789.589 1250 794.007L1250 808.007C1250 812.425 1246.42 816.007 1242 816.007L1228 816.008C1223.58 816.008 1220 812.426 1220 808.008L1220 794.008Z" fill="#F2F0FF"/>
<path d="M1180 794.009C1180 789.591 1183.58 786.009 1188 786.009L1202 786.008C1206.41 786.008 1210 789.59 1210 794.008L1210 808.008C1210 812.426 1206.42 816.008 1202 816.008L1188 816.009C1183.58 816.009 1180 812.427 1180 808.009L1180 794.009Z" fill="#F2F0FF"/>
<path d="M1140 794.01C1140 789.592 1143.58 786.01 1148 786.01L1162 786.01C1166.41 786.009 1170 789.591 1170 794.009L1170 808.009C1170 812.428 1166.42 816.009 1162 816.01L1148 816.01C1143.58 816.01 1140 812.429 1140 808.01L1140 794.01Z" fill="#F2F0FF"/>
<path d="M1100 794.011C1100 789.593 1103.58 786.011 1108 786.011L1122 786.011C1126.41 786.011 1130 789.592 1130 794.011L1130 808.011C1130 812.429 1126.42 816.011 1122 816.011L1108 816.011C1103.58 816.011 1100 812.43 1100 808.011L1100 794.011Z" fill="#F2F0FF"/>
<path d="M1060 794.013C1060 789.594 1063.58 786.013 1068 786.013L1082 786.012C1086.41 786.012 1090 789.594 1090 794.012L1090 808.012C1090 812.43 1086.42 816.012 1082 816.012L1068 816.013C1063.58 816.013 1060 812.431 1060 808.013L1060 794.013Z" fill="#F2F0FF"/>
<path d="M1020 794.014C1020 789.596 1023.58 786.014 1028 786.014L1042 786.013C1046.41 786.013 1050 789.595 1050 794.013L1050 808.013C1050 812.431 1046.42 816.013 1042 816.013L1028 816.014C1023.58 816.014 1020 812.432 1020 808.014L1020 794.014Z" fill="#F2F0FF"/>
<path d="M1450 752C1449.99 747.582 1453.58 744 1457.99 744L1471.99 744C1476.41 744 1479.99 747.581 1480 752L1480 766C1480 770.418 1476.41 774 1472 774L1458 774C1453.58 774 1450 770.419 1450 766L1450 752Z" fill="#F2F0FF"/>
<path d="M1410 752.002C1409.99 747.583 1413.58 744.002 1417.99 744.002L1431.99 744.001C1436.41 744.001 1439.99 747.583 1440 752.001L1440 766.001C1440 770.419 1436.41 774.001 1432 774.001L1418 774.002C1413.58 774.002 1410 770.42 1410 766.002L1410 752.002Z" fill="#F2F0FF"/>
<path d="M1370 752.003C1369.99 747.585 1373.58 744.003 1377.99 744.003L1391.99 744.002C1396.41 744.002 1399.99 747.584 1400 752.002L1400 766.002C1400 770.42 1396.41 774.002 1392 774.002L1378 774.003C1373.58 774.003 1370 770.421 1370 766.003L1370 752.003Z" fill="#F2F0FF"/>
<path d="M1330 752.004C1329.99 747.586 1333.58 744.004 1337.99 744.004L1351.99 744.004C1356.41 744.004 1359.99 747.585 1360 752.003L1360 766.003C1360 770.422 1356.41 774.004 1352 774.004L1338 774.004C1333.58 774.004 1330 770.423 1330 766.004L1330 752.004Z" fill="#F2F0FF"/>
<path d="M1290 752.006C1289.99 747.587 1293.58 744.005 1297.99 744.005L1311.99 744.005C1316.41 744.005 1319.99 747.586 1320 752.005L1320 766.005C1320 770.423 1316.41 774.005 1312 774.005L1298 774.005C1293.58 774.005 1290 770.424 1290 766.006L1290 752.006Z" fill="#F2F0FF"/>
<path d="M1250 752.007C1249.99 747.588 1253.58 744.007 1257.99 744.007L1271.99 744.006C1276.41 744.006 1279.99 747.588 1280 752.006L1280 766.006C1280 770.424 1276.41 774.006 1272 774.006L1258 774.007C1253.58 774.007 1250 770.425 1250 766.007L1250 752.007Z" fill="#F2F0FF"/>
<path d="M1210 752.008C1209.99 747.59 1213.58 744.008 1217.99 744.008L1231.99 744.007C1236.41 744.007 1239.99 747.589 1240 752.007L1240 766.007C1240 770.425 1236.41 774.007 1232 774.007L1218 774.008C1213.58 774.008 1210 770.426 1210 766.008L1210 752.008Z" fill="#F2F0FF"/>
<path d="M1170 752.009C1169.99 747.591 1173.58 744.009 1177.99 744.009L1191.99 744.009C1196.41 744.009 1199.99 747.59 1200 752.008L1200 766.008C1200 770.427 1196.41 774.009 1192 774.009L1178 774.009C1173.58 774.009 1170 770.428 1170 766.009L1170 752.009Z" fill="#F2F0FF"/>
<path d="M1130 752.011C1129.99 747.592 1133.58 744.01 1137.99 744.01L1151.99 744.01C1156.41 744.01 1159.99 747.591 1160 752.01L1160 766.01C1160 770.428 1156.41 774.01 1152 774.01L1138 774.01C1133.58 774.01 1130 770.429 1130 766.011L1130 752.011Z" fill="#F2F0FF"/>
<path d="M1090 752.012C1089.99 747.594 1093.58 744.012 1097.99 744.012L1111.99 744.011C1116.41 744.011 1119.99 747.593 1120 752.011L1120 766.011C1120 770.429 1116.41 774.011 1112 774.011L1098 774.012C1093.58 774.012 1090 770.43 1090 766.012L1090 752.012Z" fill="#F2F0FF"/>
<path d="M1050 752.013C1049.99 747.595 1053.58 744.013 1057.99 744.013L1071.99 744.012C1076.41 744.012 1079.99 747.594 1080 752.012L1080 766.012C1080 770.43 1076.41 774.012 1072 774.012L1058 774.013C1053.58 774.013 1050 770.431 1050 766.013L1050 752.013Z" fill="#F2F0FF"/>
<path d="M1010 752.014C1009.99 747.596 1013.58 744.014 1017.99 744.014L1031.99 744.014C1036.41 744.014 1039.99 747.595 1040 752.013L1040 766.013C1040 770.432 1036.41 774.014 1032 774.014L1018 774.014C1013.58 774.014 1010 770.433 1010 766.014L1010 752.014Z" fill="#F2F0FF"/>
<path d="M969.995 752.016C969.995 747.597 973.576 744.015 977.995 744.015L991.995 744.015C996.413 744.015 999.995 747.596 999.995 752.015L999.995 766.015C999.996 770.433 996.414 774.015 991.996 774.015L977.996 774.015C973.577 774.015 969.996 770.434 969.995 766.016L969.995 752.016Z" fill="#F2F0FF"/>
<path d="M929.995 752.017C929.995 747.599 933.576 744.017 937.995 744.017L951.995 744.016C956.413 744.016 959.995 747.598 959.995 752.016L959.995 766.016C959.996 770.434 956.414 774.016 951.996 774.016L937.996 774.017C933.577 774.017 929.996 770.435 929.995 766.017L929.995 752.017Z" fill="#F2F0FF"/>
<path d="M974.994 710.015C974.994 705.597 978.575 702.015 982.993 702.015L996.993 702.015C1001.41 702.015 1004.99 705.596 1004.99 710.014L1004.99 724.014C1004.99 728.433 1001.41 732.015 996.994 732.015L982.994 732.015C978.576 732.015 974.994 728.434 974.994 724.015L974.994 710.015Z" fill="#F2F0FF"/>
<path d="M934.994 710.017C934.994 705.598 938.575 702.017 942.993 702.016L956.993 702.016C961.412 702.016 964.994 705.598 964.994 710.016L964.994 724.016C964.994 728.434 961.413 732.016 956.994 732.016L942.994 732.016C938.576 732.017 934.994 728.435 934.994 724.017L934.994 710.017Z" fill="#F2F0FF"/>
<path d="M894.994 710.018C894.994 705.6 898.575 702.018 902.993 702.018L916.993 702.017C921.412 702.017 924.994 705.599 924.994 710.017L924.994 724.017C924.994 728.435 921.413 732.017 916.994 732.017L902.994 732.018C898.576 732.018 894.994 728.436 894.994 724.018L894.994 710.018Z" fill="#F2F0FF"/>
<path d="M1419.99 710.001C1419.99 705.583 1423.58 702.001 1427.99 702.001L1441.99 702.001C1446.41 702.001 1449.99 705.582 1449.99 710.001L1449.99 724.001C1449.99 728.419 1446.41 732.001 1441.99 732.001L1427.99 732.001C1423.58 732.001 1419.99 728.42 1419.99 724.001L1419.99 710.001Z" fill="#F2F0FF"/>
<path d="M1379.99 710.003C1379.99 705.584 1383.58 702.003 1387.99 702.002L1401.99 702.002C1406.41 702.002 1409.99 705.583 1409.99 710.002L1409.99 724.002C1409.99 728.42 1406.41 732.002 1401.99 732.002L1387.99 732.002C1383.58 732.003 1379.99 728.421 1379.99 724.003L1379.99 710.003Z" fill="#F2F0FF"/>
<path d="M1339.99 710.004C1339.99 705.586 1343.58 702.004 1347.99 702.004L1361.99 702.003C1366.41 702.003 1369.99 705.585 1369.99 710.003L1369.99 724.003C1369.99 728.421 1366.41 732.003 1361.99 732.003L1347.99 732.004C1343.58 732.004 1339.99 728.422 1339.99 724.004L1339.99 710.004Z" fill="#F2F0FF"/>
<path d="M1299.99 710.005C1299.99 705.587 1303.58 702.005 1307.99 702.005L1321.99 702.005C1326.41 702.004 1329.99 705.586 1329.99 710.004L1329.99 724.004C1329.99 728.423 1326.41 732.004 1321.99 732.005L1307.99 732.005C1303.58 732.005 1299.99 728.424 1299.99 724.005L1299.99 710.005Z" fill="#F2F0FF"/>
<path d="M1259.99 710.006C1259.99 705.588 1263.58 702.006 1267.99 702.006L1281.99 702.006C1286.41 702.006 1289.99 705.587 1289.99 710.006L1289.99 724.006C1289.99 728.424 1286.41 732.006 1281.99 732.006L1267.99 732.006C1263.58 732.006 1259.99 728.425 1259.99 724.006L1259.99 710.006Z" fill="#F2F0FF"/>
<path d="M1219.99 710.008C1219.99 705.589 1223.58 702.008 1227.99 702.008L1241.99 702.007C1246.41 702.007 1249.99 705.589 1249.99 710.007L1249.99 724.007C1249.99 728.425 1246.41 732.007 1241.99 732.007L1227.99 732.008C1223.58 732.008 1219.99 728.426 1219.99 724.008L1219.99 710.008Z" fill="#F2F0FF"/>
<path d="M1179.99 710.009C1179.99 705.591 1183.58 702.009 1187.99 702.009L1201.99 702.008C1206.41 702.008 1209.99 705.59 1209.99 710.008L1209.99 724.008C1209.99 728.426 1206.41 732.008 1201.99 732.008L1187.99 732.009C1183.58 732.009 1179.99 728.427 1179.99 724.009L1179.99 710.009Z" fill="#F2F0FF"/>
<path d="M1139.99 710.01C1139.99 705.592 1143.58 702.01 1147.99 702.01L1161.99 702.01C1166.41 702.009 1169.99 705.591 1169.99 710.009L1169.99 724.009C1169.99 728.428 1166.41 732.009 1161.99 732.01L1147.99 732.01C1143.58 732.01 1139.99 728.429 1139.99 724.01L1139.99 710.01Z" fill="#F2F0FF"/>
<path d="M1099.99 710.012C1099.99 705.593 1103.58 702.011 1107.99 702.011L1121.99 702.011C1126.41 702.011 1129.99 705.592 1129.99 710.011L1129.99 724.011C1129.99 728.429 1126.41 732.011 1121.99 732.011L1107.99 732.011C1103.58 732.011 1099.99 728.43 1099.99 724.012L1099.99 710.012Z" fill="#F2F0FF"/>
<path d="M1059.99 710.013C1059.99 705.594 1063.58 702.013 1067.99 702.013L1081.99 702.012C1086.41 702.012 1089.99 705.594 1089.99 710.012L1089.99 724.012C1089.99 728.43 1086.41 732.012 1081.99 732.012L1067.99 732.013C1063.58 732.013 1059.99 728.431 1059.99 724.013L1059.99 710.013Z" fill="#F2F0FF"/>
<path d="M1019.99 710.014C1019.99 705.596 1023.58 702.014 1027.99 702.014L1041.99 702.013C1046.41 702.013 1049.99 705.595 1049.99 710.013L1049.99 724.013C1049.99 728.431 1046.41 732.013 1041.99 732.013L1027.99 732.014C1023.58 732.014 1019.99 728.432 1019.99 724.014L1019.99 710.014Z" fill="#F2F0FF"/>
<path d="M1009.99 668.014C1009.99 663.596 1013.57 660.014 1017.99 660.014L1031.99 660.014C1036.41 660.014 1039.99 663.595 1039.99 668.013L1039.99 682.013C1039.99 686.432 1036.41 690.014 1031.99 690.014L1017.99 690.014C1013.57 690.014 1009.99 686.433 1009.99 682.014L1009.99 668.014Z" fill="#F2F0FF"/>
<path d="M964.992 668.016C964.992 663.597 968.574 660.016 972.992 660.015L986.992 660.015C991.41 660.015 994.992 663.597 994.992 668.015L994.993 682.015C994.993 686.433 991.411 690.015 986.993 690.015L972.993 690.015C968.575 690.016 964.993 686.434 964.993 682.016L964.992 668.016Z" fill="#F2F0FF"/>
<path d="M1454.99 668C1454.99 663.582 1458.57 660 1462.99 660L1476.99 660C1481.41 659.999 1484.99 663.581 1484.99 667.999L1484.99 681.999C1484.99 686.418 1481.41 689.999 1476.99 690L1462.99 690C1458.57 690 1454.99 686.419 1454.99 682L1454.99 668Z" fill="#F2F0FF"/>
<path d="M1414.99 668.002C1414.99 663.583 1418.57 660.002 1422.99 660.001L1436.99 660.001C1441.41 660.001 1444.99 663.582 1444.99 668.001L1444.99 682.001C1444.99 686.419 1441.41 690.001 1436.99 690.001L1422.99 690.001C1418.57 690.002 1414.99 686.42 1414.99 682.002L1414.99 668.002Z" fill="#F2F0FF"/>
<path d="M1374.99 668.003C1374.99 663.585 1378.57 660.003 1382.99 660.003L1396.99 660.002C1401.41 660.002 1404.99 663.584 1404.99 668.002L1404.99 682.002C1404.99 686.42 1401.41 690.002 1396.99 690.002L1382.99 690.003C1378.57 690.003 1374.99 686.421 1374.99 682.003L1374.99 668.003Z" fill="#F2F0FF"/>
<path d="M1334.99 668.004C1334.99 663.586 1338.57 660.004 1342.99 660.004L1356.99 660.003C1361.41 660.003 1364.99 663.585 1364.99 668.003L1364.99 682.003C1364.99 686.421 1361.41 690.003 1356.99 690.003L1342.99 690.004C1338.57 690.004 1334.99 686.422 1334.99 682.004L1334.99 668.004Z" fill="#F2F0FF"/>
<path d="M1294.99 668.005C1294.99 663.587 1298.57 660.005 1302.99 660.005L1316.99 660.005C1321.41 660.005 1324.99 663.586 1324.99 668.004L1324.99 682.004C1324.99 686.423 1321.41 690.005 1316.99 690.005L1302.99 690.005C1298.57 690.005 1294.99 686.424 1294.99 682.005L1294.99 668.005Z" fill="#F2F0FF"/>
<path d="M1254.99 668.007C1254.99 663.588 1258.57 660.007 1262.99 660.006L1276.99 660.006C1281.41 660.006 1284.99 663.587 1284.99 668.006L1284.99 682.006C1284.99 686.424 1281.41 690.006 1276.99 690.006L1262.99 690.006C1258.57 690.007 1254.99 686.425 1254.99 682.007L1254.99 668.007Z" fill="#F2F0FF"/>
<path d="M1214.99 668.008C1214.99 663.59 1218.57 660.008 1222.99 660.008L1236.99 660.007C1241.41 660.007 1244.99 663.589 1244.99 668.007L1244.99 682.007C1244.99 686.425 1241.41 690.007 1236.99 690.007L1222.99 690.008C1218.57 690.008 1214.99 686.426 1214.99 682.008L1214.99 668.008Z" fill="#F2F0FF"/>
<path d="M1174.99 668.009C1174.99 663.591 1178.57 660.009 1182.99 660.009L1196.99 660.008C1201.41 660.008 1204.99 663.59 1204.99 668.008L1204.99 682.008C1204.99 686.426 1201.41 690.008 1196.99 690.008L1182.99 690.009C1178.57 690.009 1174.99 686.427 1174.99 682.009L1174.99 668.009Z" fill="#F2F0FF"/>
<path d="M1134.99 668.01C1134.99 663.592 1138.57 660.01 1142.99 660.01L1156.99 660.01C1161.41 660.01 1164.99 663.591 1164.99 668.009L1164.99 682.009C1164.99 686.428 1161.41 690.01 1156.99 690.01L1142.99 690.01C1138.57 690.01 1134.99 686.429 1134.99 682.01L1134.99 668.01Z" fill="#F2F0FF"/>
<path d="M1094.99 668.012C1094.99 663.593 1098.57 660.012 1102.99 660.011L1116.99 660.011C1121.41 660.011 1124.99 663.592 1124.99 668.011L1124.99 682.011C1124.99 686.429 1121.41 690.011 1116.99 690.011L1102.99 690.011C1098.57 690.012 1094.99 686.43 1094.99 682.012L1094.99 668.012Z" fill="#F2F0FF"/>
<path d="M1054.99 668.013C1054.99 663.595 1058.57 660.013 1062.99 660.013L1076.99 660.012C1081.41 660.012 1084.99 663.594 1084.99 668.012L1084.99 682.012C1084.99 686.43 1081.41 690.012 1076.99 690.012L1062.99 690.013C1058.57 690.013 1054.99 686.431 1054.99 682.013L1054.99 668.013Z" fill="#F2F0FF"/>
<path d="M1439.99 626.001C1439.99 621.583 1443.57 618.001 1447.99 618.001L1461.99 618C1466.41 618 1469.99 621.582 1469.99 626L1469.99 640C1469.99 644.418 1466.41 648 1461.99 648L1447.99 648.001C1443.57 648.001 1439.99 644.419 1439.99 640.001L1439.99 626.001Z" fill="#F2F0FF"/>
<path d="M1399.99 626.002C1399.99 621.584 1403.57 618.002 1407.99 618.002L1421.99 618.001C1426.41 618.001 1429.99 621.583 1429.99 626.001L1429.99 640.001C1429.99 644.419 1426.41 648.001 1421.99 648.001L1407.99 648.002C1403.57 648.002 1399.99 644.42 1399.99 640.002L1399.99 626.002Z" fill="#F2F0FF"/>
<path d="M1359.99 626.003C1359.99 621.585 1363.57 618.003 1367.99 618.003L1381.99 618.003C1386.41 618.003 1389.99 621.584 1389.99 626.002L1389.99 640.002C1389.99 644.421 1386.41 648.003 1381.99 648.003L1367.99 648.003C1363.57 648.003 1359.99 644.422 1359.99 640.003L1359.99 626.003Z" fill="#F2F0FF"/>
<path d="M1319.99 626.005C1319.99 621.586 1323.57 618.004 1327.99 618.004L1341.99 618.004C1346.41 618.004 1349.99 621.585 1349.99 626.004L1349.99 640.004C1349.99 644.422 1346.41 648.004 1341.99 648.004L1327.99 648.004C1323.57 648.004 1319.99 644.423 1319.99 640.005L1319.99 626.005Z" fill="#F2F0FF"/>
<path d="M1279.99 626.006C1279.99 621.588 1283.57 618.006 1287.99 618.006L1301.99 618.005C1306.41 618.005 1309.99 621.587 1309.99 626.005L1309.99 640.005C1309.99 644.423 1306.41 648.005 1301.99 648.005L1287.99 648.006C1283.57 648.006 1279.99 644.424 1279.99 640.006L1279.99 626.006Z" fill="#F2F0FF"/>
<path d="M1239.99 626.007C1239.99 621.589 1243.57 618.007 1247.99 618.007L1261.99 618.006C1266.41 618.006 1269.99 621.588 1269.99 626.006L1269.99 640.006C1269.99 644.424 1266.41 648.006 1261.99 648.006L1247.99 648.007C1243.57 648.007 1239.99 644.425 1239.99 640.007L1239.99 626.007Z" fill="#F2F0FF"/>
<path d="M1199.99 626.008C1199.99 621.59 1203.57 618.008 1207.99 618.008L1221.99 618.008C1226.41 618.008 1229.99 621.589 1229.99 626.007L1229.99 640.007C1229.99 644.426 1226.41 648.008 1221.99 648.008L1207.99 648.008C1203.57 648.008 1199.99 644.427 1199.99 640.008L1199.99 626.008Z" fill="#F2F0FF"/>
<path d="M1159.99 626.01C1159.99 621.591 1163.57 618.01 1167.99 618.009L1181.99 618.009C1186.41 618.009 1189.99 621.59 1189.99 626.009L1189.99 640.009C1189.99 644.427 1186.41 648.009 1181.99 648.009L1167.99 648.009C1163.57 648.01 1159.99 644.428 1159.99 640.01L1159.99 626.01Z" fill="#F2F0FF"/>
<path d="M1119.99 626.011C1119.99 621.593 1123.57 618.011 1127.99 618.011L1141.99 618.01C1146.41 618.01 1149.99 621.592 1149.99 626.01L1149.99 640.01C1149.99 644.428 1146.41 648.01 1141.99 648.01L1127.99 648.011C1123.57 648.011 1119.99 644.429 1119.99 640.011L1119.99 626.011Z" fill="#F2F0FF"/>
<path d="M1079.99 626.012C1079.99 621.594 1083.57 618.012 1087.99 618.012L1101.99 618.011C1106.41 618.011 1109.99 621.593 1109.99 626.011L1109.99 640.011C1109.99 644.429 1106.41 648.011 1101.99 648.011L1087.99 648.012C1083.57 648.012 1079.99 644.43 1079.99 640.012L1079.99 626.012Z" fill="#F2F0FF"/>
<path d="M1419.99 584.001C1419.99 579.583 1423.57 576.001 1427.99 576.001L1441.99 576.001C1446.41 576.001 1449.99 579.582 1449.99 584.001L1449.99 598.001C1449.99 602.419 1446.41 606.001 1441.99 606.001L1427.99 606.001C1423.57 606.001 1419.99 602.42 1419.99 598.001L1419.99 584.001Z" fill="#F2F0FF"/>
<path d="M1379.99 584.003C1379.99 579.584 1383.57 576.003 1387.99 576.002L1401.99 576.002C1406.41 576.002 1409.99 579.584 1409.99 584.002L1409.99 598.002C1409.99 602.42 1406.41 606.002 1401.99 606.002L1387.99 606.002C1383.57 606.003 1379.99 602.421 1379.99 598.003L1379.99 584.003Z" fill="#F2F0FF"/>
<path d="M1339.99 584.004C1339.99 579.586 1343.57 576.004 1347.99 576.004L1361.99 576.003C1366.41 576.003 1369.99 579.585 1369.99 584.003L1369.99 598.003C1369.99 602.421 1366.41 606.003 1361.99 606.003L1347.99 606.004C1343.57 606.004 1339.99 602.422 1339.99 598.004L1339.99 584.004Z" fill="#F2F0FF"/>
<path d="M1299.99 584.005C1299.99 579.587 1303.57 576.005 1307.99 576.005L1321.99 576.005C1326.41 576.004 1329.99 579.586 1329.99 584.004L1329.99 598.004C1329.99 602.423 1326.41 606.004 1321.99 606.005L1307.99 606.005C1303.57 606.005 1299.99 602.424 1299.99 598.005L1299.99 584.005Z" fill="#F2F0FF"/>
<path d="M1259.99 584.007C1259.99 579.588 1263.57 576.006 1267.99 576.006L1281.99 576.006C1286.41 576.006 1289.99 579.587 1289.99 584.006L1289.99 598.006C1289.99 602.424 1286.41 606.006 1281.99 606.006L1267.99 606.006C1263.57 606.006 1259.99 602.425 1259.99 598.007L1259.99 584.007Z" fill="#F2F0FF"/>
<path d="M1219.99 584.008C1219.99 579.589 1223.57 576.008 1227.99 576.008L1241.99 576.007C1246.41 576.007 1249.99 579.589 1249.99 584.007L1249.99 598.007C1249.99 602.425 1246.41 606.007 1241.99 606.007L1227.99 606.008C1223.57 606.008 1219.99 602.426 1219.99 598.008L1219.99 584.008Z" fill="#F2F0FF"/>
<path d="M1179.99 584.009C1179.99 579.591 1183.57 576.009 1187.99 576.009L1201.99 576.008C1206.41 576.008 1209.99 579.59 1209.99 584.008L1209.99 598.008C1209.99 602.426 1206.41 606.008 1201.99 606.008L1187.99 606.009C1183.57 606.009 1179.99 602.427 1179.99 598.009L1179.99 584.009Z" fill="#F2F0FF"/>
<path d="M1139.99 584.01C1139.99 579.592 1143.57 576.01 1147.99 576.01L1161.99 576.01C1166.41 576.009 1169.99 579.591 1169.99 584.009L1169.99 598.009C1169.99 602.428 1166.41 606.009 1161.99 606.01L1147.99 606.01C1143.57 606.01 1139.99 602.429 1139.99 598.01L1139.99 584.01Z" fill="#F2F0FF"/>
<path d="M1439.99 542.001C1439.99 537.583 1443.57 534.001 1447.99 534.001L1461.99 534C1466.41 534 1469.99 537.582 1469.99 542L1469.99 556C1469.99 560.418 1466.41 564 1461.99 564L1447.99 564.001C1443.57 564.001 1439.99 560.419 1439.99 556.001L1439.99 542.001Z" fill="#F2F0FF"/>
<path d="M1399.99 542.002C1399.99 537.584 1403.57 534.002 1407.99 534.002L1421.99 534.001C1426.41 534.001 1429.99 537.583 1429.99 542.001L1429.99 556.001C1429.99 560.419 1426.41 564.001 1421.99 564.001L1407.99 564.002C1403.57 564.002 1399.99 560.42 1399.99 556.002L1399.99 542.002Z" fill="#F2F0FF"/>
<path d="M1359.99 542.003C1359.99 537.585 1363.57 534.003 1367.99 534.003L1381.99 534.003C1386.41 534.003 1389.99 537.584 1389.99 542.002L1389.99 556.002C1389.99 560.421 1386.41 564.003 1381.99 564.003L1367.99 564.003C1363.57 564.003 1359.99 560.422 1359.99 556.003L1359.99 542.003Z" fill="#F2F0FF"/>
<path d="M1319.99 542.005C1319.99 537.586 1323.57 534.004 1327.99 534.004L1341.99 534.004C1346.41 534.004 1349.99 537.585 1349.99 542.004L1349.99 556.004C1349.99 560.422 1346.41 564.004 1341.99 564.004L1327.99 564.004C1323.57 564.004 1319.99 560.423 1319.99 556.005L1319.99 542.005Z" fill="#F2F0FF"/>
<path d="M1279.99 542.006C1279.99 537.588 1283.57 534.006 1287.99 534.006L1301.99 534.005C1306.41 534.005 1309.99 537.587 1309.99 542.005L1309.99 556.005C1309.99 560.423 1306.41 564.005 1301.99 564.005L1287.99 564.006C1283.57 564.006 1279.99 560.424 1279.99 556.006L1279.99 542.006Z" fill="#F2F0FF"/>
<path d="M1239.99 542.007C1239.99 537.589 1243.57 534.007 1247.99 534.007L1261.99 534.006C1266.41 534.006 1269.99 537.588 1269.99 542.006L1269.99 556.006C1269.99 560.424 1266.41 564.006 1261.99 564.006L1247.99 564.007C1243.57 564.007 1239.99 560.425 1239.99 556.007L1239.99 542.007Z" fill="#F2F0FF"/>
<path d="M1419.99 500.001C1419.99 495.583 1423.57 492.001 1427.99 492.001L1441.99 492.001C1446.41 492.001 1449.99 495.582 1449.99 500.001L1449.99 514.001C1449.99 518.419 1446.41 522.001 1441.99 522.001L1427.99 522.001C1423.57 522.001 1419.99 518.42 1419.99 514.001L1419.99 500.001Z" fill="#F2F0FF"/>
<path d="M1379.99 500.003C1379.99 495.584 1383.57 492.003 1387.99 492.002L1401.99 492.002C1406.41 492.002 1409.99 495.583 1409.99 500.002L1409.99 514.002C1409.99 518.42 1406.41 522.002 1401.99 522.002L1387.99 522.002C1383.57 522.003 1379.99 518.421 1379.99 514.003L1379.99 500.003Z" fill="#F2F0FF"/>
<path d="M1339.99 500.004C1339.99 495.586 1343.57 492.004 1347.99 492.004L1361.99 492.003C1366.41 492.003 1369.99 495.585 1369.99 500.003L1369.99 514.003C1369.99 518.421 1366.41 522.003 1361.99 522.003L1347.99 522.004C1343.57 522.004 1339.99 518.422 1339.99 514.004L1339.99 500.004Z" fill="#F2F0FF"/>
<path d="M1299.99 500.005C1299.99 495.587 1303.57 492.005 1307.99 492.005L1321.99 492.005C1326.41 492.004 1329.99 495.586 1329.99 500.004L1329.99 514.004C1329.99 518.423 1326.41 522.004 1321.99 522.005L1307.99 522.005C1303.57 522.005 1299.99 518.423 1299.99 514.005L1299.99 500.005Z" fill="#F2F0FF"/>
<path d="M1259.99 500.006C1259.99 495.588 1263.57 492.006 1267.99 492.006L1281.99 492.006C1286.41 492.006 1289.99 495.587 1289.99 500.006L1289.99 514.006C1289.99 518.424 1286.41 522.006 1281.99 522.006L1267.99 522.006C1263.57 522.006 1259.99 518.425 1259.99 514.006L1259.99 500.006Z" fill="#F2F0FF"/>
<path d="M1436.99 458.001C1436.99 453.583 1440.57 450.001 1444.99 450.001L1458.99 450C1463.4 450 1466.99 453.582 1466.99 458L1466.99 472C1466.99 476.418 1463.4 480 1458.99 480L1444.99 480.001C1440.57 480.001 1436.99 476.419 1436.99 472.001L1436.99 458.001Z" fill="#F2F0FF"/>
<path d="M1396.99 458.002C1396.99 453.584 1400.57 450.002 1404.99 450.002L1418.99 450.001C1423.4 450.001 1426.99 453.583 1426.99 458.001L1426.99 472.001C1426.99 476.42 1423.4 480.001 1418.99 480.001L1404.99 480.002C1400.57 480.002 1396.99 476.42 1396.99 472.002L1396.99 458.002Z" fill="#F2F0FF"/>
<path d="M1356.99 458.003C1356.99 453.585 1360.57 450.003 1364.99 450.003L1378.99 450.003C1383.4 450.003 1386.99 453.584 1386.99 458.002L1386.99 472.002C1386.99 476.421 1383.4 480.003 1378.99 480.003L1364.99 480.003C1360.57 480.003 1356.99 476.422 1356.99 472.003L1356.99 458.003Z" fill="#F2F0FF"/>
<path d="M1316.99 458.005C1316.99 453.586 1320.57 450.005 1324.99 450.004L1338.99 450.004C1343.4 450.004 1346.99 453.585 1346.99 458.004L1346.99 472.004C1346.99 476.422 1343.4 480.004 1338.99 480.004L1324.99 480.004C1320.57 480.005 1316.99 476.423 1316.99 472.005L1316.99 458.005Z" fill="#F2F0FF"/>
<path d="M1274.99 459.006C1274.99 454.588 1278.57 451.006 1282.99 451.006L1296.99 451.005C1301.4 451.005 1304.99 454.587 1304.99 459.005L1304.99 473.005C1304.99 477.423 1301.4 481.005 1296.99 481.005L1282.99 481.006C1278.57 481.006 1274.99 477.424 1274.99 473.006L1274.99 459.006Z" fill="#F2F0FF"/>
<path d="M1451.98 416C1451.98 411.582 1455.57 408 1459.98 408L1473.98 408C1478.4 408 1481.98 411.581 1481.98 416L1481.98 430C1481.99 434.418 1478.4 438 1473.99 438L1459.99 438C1455.57 438 1451.99 434.419 1451.98 430L1451.98 416Z" fill="#F2F0FF"/>
<path d="M1411.98 416.002C1411.98 411.583 1415.57 408.002 1419.98 408.001L1433.98 408.001C1438.4 408.001 1441.98 411.582 1441.98 416.001L1441.98 430.001C1441.99 434.419 1438.4 438.001 1433.99 438.001L1419.99 438.001C1415.57 438.002 1411.99 434.42 1411.98 430.002L1411.98 416.002Z" fill="#F2F0FF"/>
<path d="M1371.98 416.003C1371.98 411.585 1375.57 408.003 1379.98 408.003L1393.98 408.002C1398.4 408.002 1401.98 411.584 1401.98 416.002L1401.98 430.002C1401.99 434.42 1398.4 438.002 1393.99 438.002L1379.99 438.003C1375.57 438.003 1371.99 434.421 1371.98 430.003L1371.98 416.003Z" fill="#F2F0FF"/>
<path d="M1436.98 374.001C1436.98 369.583 1440.56 366.001 1444.98 366.001L1458.98 366C1463.4 366 1466.98 369.582 1466.98 374L1466.98 388C1466.98 392.418 1463.4 396 1458.98 396L1444.98 396.001C1440.57 396.001 1436.98 392.419 1436.98 388.001L1436.98 374.001Z" fill="#F2F0FF"/>
</svg>
